<svg xmlns="http://www.w3.org/2000/svg" viewBox="0 0 101.31 63.36">
  <defs>
    <style>
      .cls-1 {
        fill: none;
        stroke: #e31937;
        stroke-linecap: round;
        stroke-linejoin: round;
        stroke-width: 2px;
      }

      .cls-2 {
        fill: #231f20;
      }
    </style>
  </defs>
  <g id="Pocket_Tracks" data-name="Pocket Tracks">
    <g>
      <line class="cls-1" x1="50.53" y1="4.93" x2="62.57" y2="5.18"/>
      <line class="cls-1" x1="56.34" y1="-1.06" x2="56.67" y2="10.98"/>
      <g>
        <path d="M56.54,6.27l-.24.21.05,0,0,0,0,0-.09.08,0,0,.08-.07-.16-.16,0,0h.3l.09,0Zm-.39.06.12.11.17-.15-.09,0h-.2Z"/>
        <path d="M56.8,6.53l-.24.21,0,0,0,0,0,0-.09.07,0,0,.08-.08-.16-.15,0,0h.2l.1,0,.09,0Zm-.39.06.12.11.17-.15h-.09l-.08,0h-.12Z"/>
        <path d="M57.07,6.84l0,0H57l-.08,0-.09,0L56.7,7l-.08,0,0,0,.08-.05.08,0,.09,0,.08,0,.06,0H57l-.17-.17,0,0,.22.21Z"/>
      </g>
      <g>
        <path d="M54.09,4.65l-.23.21,0,0,0,0,0-.05L53.74,5l0,0,.08-.07-.16-.16,0,0H54l.09,0Zm-.39.06.12.11L54,4.67l-.09,0h-.2Z"/>
        <path d="M54.35,4.91l-.23.21,0,0,0,0,0,0L54,5.22l0,0L54,5.11,53.88,5l0,0h.2l.1,0,.09,0ZM54,5l.12.11.17-.15h-.09l-.08,0H54Z"/>
        <path d="M54.41,5.42l-.06,0-.06,0,0,0s0,0-.06,0l0,0a.09.09,0,0,1,0-.07.09.09,0,0,1,0-.06.13.13,0,0,1,.06-.07.24.24,0,0,1,.09-.06.16.16,0,0,1,.09,0h.09l.07,0,.05.07,0,0,0-.06s0,0,0,0h-.07l-.06,0a.18.18,0,0,0-.07.05h0a.11.11,0,0,1,.12,0,.05.05,0,0,1,0,0,.11.11,0,0,1,0,.05.07.07,0,0,1,0,0A.1.1,0,0,1,54.41,5.42Zm0,0s0,0,0,0l0,0s0,0,0,0,0,0,0,0l0,0h-.08l0,0,0,0a.06.06,0,0,0,0,0s0,0,0,0l0,0,0,0h.08Z"/>
      </g>
      <g>
        <path d="M59.26,4.82,59,5l0,.05,0,0,0,0-.08.07,0,0L59,5l-.16-.16,0,0H59l.1,0,.09,0Zm-.39,0L59,5l.17-.16-.09,0h-.2Z"/>
        <path d="M59.52,5.07l-.23.21,0,0,0,0,0,0-.08.08,0,0,.08-.08-.16-.15,0,0h.2l.1,0,.09,0Zm-.39.06.12.11.17-.15-.09,0h-.2Z"/>
        <path d="M59.56,5.57a.1.1,0,0,1-.05,0h-.06l-.06,0-.06,0a.24.24,0,0,1-.06-.09l0,0a.18.18,0,0,0,0,.09l0,0h0s0,0,0,0l0,0a.11.11,0,0,0,0-.07.09.09,0,0,0,0-.08l0,0h0l0,0h0l.19-.14.15.15,0,0-.13-.12-.11.09h0l0,0,0,0a.43.43,0,0,0,0,0,.13.13,0,0,1,0,.06Z"/>
      </g>
      <g>
        <path d="M56.54,2.39l-.24.2.05.05,0,0,0,0-.09.07,0,0,.08-.07-.16-.16,0,0h.1l.1,0h.1l.09,0Zm-.39,0,.12.12.17-.16-.09,0h-.2Z"/>
        <path d="M56.8,2.64l-.24.21,0,0,0,0,0,0L56.44,3l0,0,.08-.08-.16-.15,0,0h.2l.1,0,.09,0Zm-.39.06.12.11.17-.15-.09,0h-.2Z"/>
        <path d="M57.06,2.9l-.23.2,0,0,0,0,0,0-.09.07,0,0,.08-.07-.16-.16,0,0h.2l.1,0,.09,0ZM56.67,3l.12.12L57,2.91l-.09,0h-.2Z"/>
      </g>
    </g>
    <g>
      <line class="cls-1" x1="86.66" y1="32.69" x2="85.45" y2="31.19"/>
      <line class="cls-1" x1="82.49" y1="30.98" x2="85.45" y2="31.19"/>
      <line class="cls-1" x1="81.23" y1="29.46" x2="86.91" y2="36.95"/>
      <line class="cls-1" x1="85.1" y1="43.26" x2="86.82" y2="36.87"/>
      <line class="cls-1" x1="93.47" y1="42.63" x2="86.82" y2="36.87"/>
      <line class="cls-1" x1="73" y1="27.38" x2="81.33" y2="29.57"/>
      <line class="cls-1" x1="80.68" y1="23.38" x2="81.33" y2="29.57"/>
      <g>
        <path d="M80.54,25.59l.09-.07-.12-.16,0,0,.33,0,0,.05-.21.16,0,0,0,0,0-.05-.1.07Zm.13-.1.11-.09a.1.1,0,0,0,0,0h-.25Z"/>
        <path d="M80.75,25.85l.09-.07-.12-.16,0,0h.33l0,0-.21.17,0,0,0,0,0-.05-.09.08Zm.12-.1.12-.08a.1.1,0,0,1,.05,0h0l-.07,0h-.18Z"/>
        <path d="M80.92,25.9a.14.14,0,0,1,.15,0h0a.09.09,0,0,1,0-.11.12.12,0,0,1,.17,0c0,.07,0,.13,0,.16s-.07,0-.12,0h0a.12.12,0,0,1,0,.14.14.14,0,0,1-.19,0A.14.14,0,0,1,80.92,25.9Zm.15.18s0-.07,0-.13A.08.08,0,0,0,81,26a.07.07,0,0,0,0,.11S81,26.11,81.07,26.08Zm.07-.25s0,.06,0,.11a.08.08,0,0,0,.1,0,.07.07,0,0,0,0-.1A.08.08,0,0,0,81.14,25.83Z"/>
      </g>
      <g>
        <path d="M76.71,28.24l.09-.08L76.68,28l0,0L77,28l0,.05-.21.16,0,.05,0,0,0-.05-.1.07Zm.13-.1.11-.09,0,0h-.25Z"/>
        <path d="M77.26,28.33l-.1-.13-.1.05,0,0a.25.25,0,0,1,0,.09.14.14,0,0,1,0,.11.16.16,0,0,1-.22,0,.34.34,0,0,1,0-.1l0,0a.63.63,0,0,0,0,.09.11.11,0,0,0,.14,0s0-.09,0-.16,0,0,0,0l.17-.1.13.16Z"/>
        <path d="M77.36,28.71c-.12.09-.21.1-.27,0s0-.16.08-.24.22-.09.27,0S77.46,28.63,77.36,28.71Zm-.15-.18c-.09.07-.12.14-.08.18s.1,0,.19,0,.12-.13.08-.18S77.3,28.46,77.21,28.53Z"/>
      </g>
      <g>
        <path d="M80.74,27.47l.1-.07-.13-.15,0,0h.33l0,.05-.21.16,0,0,0,0,0,0-.09.07Zm.13-.09.11-.09.06,0h-.26Z"/>
        <path d="M81,27.74l.09-.07-.12-.16,0,0,.33,0,0,.05-.21.16,0,.05,0,0,0-.05-.09.07Zm.13-.1.11-.09,0,0H81Z"/>
        <path d="M81.1,27.86s0,0,0,0a.12.12,0,0,0,.08,0,.21.21,0,0,0,.13,0h0a.16.16,0,0,1-.1-.05.14.14,0,0,1,0-.19.16.16,0,0,1,.21,0c.06.07,0,.15,0,.22a.25.25,0,0,1-.2.06.22.22,0,0,1-.13-.06l0,0Zm.2-.13a.08.08,0,0,0,0,.12.12.12,0,0,0,.09,0h0c.06-.05.08-.1,0-.15A.1.1,0,0,0,81.3,27.73Z"/>
      </g>
      <g>
        <path d="M80.74,29.27l.1-.07L80.71,29l0,0,.33,0,0,.05-.21.16,0,.05,0,0,0-.05-.09.07Zm.13-.1.11-.09.06,0h-.26Z"/>
        <path d="M81.29,29.36l-.1-.13-.09.06s0,0,0,0a.36.36,0,0,1,0,.09.16.16,0,0,1,0,.12.15.15,0,0,1-.21,0,.23.23,0,0,1-.05-.1l.05,0a.16.16,0,0,0,0,.09.1.1,0,0,0,.14,0s.05-.08,0-.15l0-.05.18-.1.12.16Z"/>
        <path d="M81,29.66l0,0h.06c.15,0,.23,0,.28,0a.08.08,0,0,0,0-.12.18.18,0,0,0-.08-.05l0,0a.14.14,0,0,1,.11.06c0,.08,0,.15,0,.18a.33.33,0,0,1-.27,0h-.05l.12.15,0,0Z"/>
      </g>
      <g>
        <path d="M78.71,28.84l.09-.07-.12-.16,0,0,.33,0,0,.05-.21.17,0,0,0,0,0-.05-.09.08Zm.13-.1.11-.08.06,0h0l-.07,0h-.18Z"/>
        <path d="M79.26,28.93l-.1-.12-.09.05s0,0,0,0a.2.2,0,0,1,0,.08.16.16,0,0,1,0,.12.14.14,0,0,1-.21,0,.23.23,0,0,1-.05-.1h0a.59.59,0,0,0,0,.08.11.11,0,0,0,.14,0s0-.09,0-.16l0,0,.17-.11.13.16Z"/>
        <path d="M79.38,29.1h0l-.08,0,0,0,.1,0,0,0-.34.26,0,0Z"/>
      </g>
      <g>
        <path d="M82,30.93l.1-.08L82,30.7l0,0,.34,0,0,.05-.21.16,0,.05,0,0,0-.05L82,31Zm.13-.1.11-.09.06,0h-.25Z"/>
        <path d="M82.55,31l-.1-.13-.09.05,0,0a.15.15,0,0,1,0,.09.14.14,0,0,1,0,.11.15.15,0,0,1-.21,0,.23.23,0,0,1,0-.1l0,0a.19.19,0,0,0,0,.09.11.11,0,0,0,.14,0s0-.09,0-.16,0,0,0,0l.18-.1.12.16Z"/>
        <path d="M82.36,31.28a.63.63,0,0,0,0,.09.09.09,0,0,0,.13,0,.11.11,0,0,0,0-.14l0,0,0,0,0,0a.09.09,0,0,0,.12,0s0-.05,0-.1l-.07-.05,0,0a.13.13,0,0,1,.09.06c.06.07,0,.13,0,.16a.1.1,0,0,1-.13,0h0a.12.12,0,0,1,0,.15s-.13,0-.19-.05a.23.23,0,0,1-.05-.1Z"/>
      </g>
      <g>
        <path d="M85.1,31.1l.09-.07-.12-.16,0,0,.33,0,0,.05-.21.16,0,.05,0,0,0-.05-.1.07Zm.13-.1.11-.09,0,0h-.25Z"/>
        <path d="M85.65,31.19l-.1-.13-.1.06,0,0a.36.36,0,0,1,0,.09.16.16,0,0,1,0,.12.16.16,0,0,1-.22,0,.34.34,0,0,1,0-.1h0a.59.59,0,0,0,0,.08.1.1,0,0,0,.14,0s0-.08,0-.15l-.05,0,.18-.11.13.16Z"/>
        <path d="M85.51,31.63l.09-.07-.12-.16,0,0,.33,0,0,.05-.21.16,0,.05,0,0,0,0-.1.07Zm.13-.1.11-.09,0,0h-.25Z"/>
      </g>
      <g>
        <path d="M86.25,32.57l.09-.07-.12-.16,0,0,.34,0,0,.05-.2.16,0,.05,0,0,0-.05-.09.07Zm.12-.1.12-.08a.1.1,0,0,1,.05,0h-.25Z"/>
        <path d="M86.8,32.66l-.1-.13-.1.06,0,0a.18.18,0,0,1,0,.09.13.13,0,0,1,0,.12.15.15,0,0,1-.21,0,.45.45,0,0,1-.05-.1h.05a.12.12,0,0,0,0,.08.09.09,0,0,0,.13,0s.05-.08,0-.15l0,0,.18-.11.12.16Z"/>
        <path d="M86.61,32.93a.19.19,0,0,0,0,.09c0,.06.1,0,.13,0s0-.09,0-.14l0,0,0,0,0,0s.08.06.12,0a.07.07,0,0,0,0-.1.15.15,0,0,0-.07-.05l0,0a.2.2,0,0,1,.1.07A.11.11,0,0,1,87,33a.1.1,0,0,1-.13,0h0a.1.1,0,0,1,0,.14.13.13,0,0,1-.19,0,.21.21,0,0,1,0-.11Z"/>
      </g>
      <g>
        <path d="M82.84,32l.09-.07-.12-.15,0,0h.33l0,0L83,32l0,0,0,0,0,0-.09.07Zm.13-.1.11-.08.06,0h-.26Z"/>
        <path d="M83.39,32.12l-.1-.13L83.2,32l0,0a.2.2,0,0,1,0,.08.15.15,0,0,1-.05.12.14.14,0,0,1-.21,0,.16.16,0,0,1,0-.1h0a.16.16,0,0,0,0,.08.1.1,0,0,0,.14,0s0-.09,0-.16l0,0,.18-.11.12.17Z"/>
        <path d="M83.6,32.38l-.1-.13-.1,0,0,0a.18.18,0,0,1,0,.09.1.1,0,0,1,0,.11.15.15,0,0,1-.21,0,.19.19,0,0,1,0-.1l0,0a.14.14,0,0,0,0,.09.09.09,0,0,0,.13,0s0-.09,0-.16l0,0,.18-.1.13.16Z"/>
      </g>
      <g>
        <path d="M83.76,33.17l.09-.07-.12-.16,0,0,.33,0,0,.05-.21.16,0,0,0,0,0,0-.09.07Zm.13-.1L84,33l0,0H83.8Z"/>
        <path d="M84.2,33.38c-.12.09-.21.1-.27,0s0-.16.09-.24.21-.09.26,0S84.31,33.3,84.2,33.38Zm-.15-.18c-.09.07-.11.14-.08.18s.11,0,.19,0,.12-.13.09-.18S84.14,33.13,84.05,33.2Z"/>
        <path d="M84.17,33.7l.09-.08-.12-.15,0,0h.33l0,0-.21.16,0,0,0,0,0,0-.09.07Zm.13-.1.11-.09,0,0h-.25Z"/>
      </g>
      <g>
        <path d="M84.66,34.28l.09-.07-.12-.15,0,0L85,34l0,.05-.21.17,0,0,0,0,0,0-.09.08Zm.13-.1.11-.08,0,0H84.7Z"/>
        <path d="M85.1,34.5c-.11.08-.21.09-.27,0s0-.16.09-.25.21-.09.26,0S85.21,34.41,85.1,34.5ZM85,34.32c-.09.06-.11.13-.08.17s.11,0,.19,0,.12-.13.09-.17S85,34.25,85,34.32Z"/>
        <path d="M85.41,34.64l-.1-.13-.09.05,0,0a.25.25,0,0,1,0,.09.14.14,0,0,1,0,.11.15.15,0,0,1-.21,0,.21.21,0,0,1,0-.11h0a.23.23,0,0,0,0,.09.11.11,0,0,0,.14,0s0-.09,0-.16l0,0,.18-.1.12.16Z"/>
      </g>
      <g>
        <path d="M86.4,36.56l.09-.08-.12-.15,0,0h.33l0,.05-.21.16,0,0,0,0,0,0-.09.07Zm.13-.1.11-.09,0,0h-.25Z"/>
        <path d="M87,36.65l-.1-.13-.1,0,0,0a.11.11,0,0,1,0,.08.11.11,0,0,1,0,.12.17.17,0,0,1-.25-.14h0a.23.23,0,0,0,0,.09.09.09,0,0,0,.13,0s.06-.09,0-.16l0,0,.18-.1.13.16Z"/>
        <path d="M87.21,36.9l0,0-.43.09,0,0,.41-.09h0L87,36.72l0,0Z"/>
      </g>
      <g>
        <path d="M88.67,38.68l.09-.07-.12-.16,0,0,.33,0,0,.05-.21.17,0,0,0,0,0-.05-.09.07Zm.13-.1.11-.08,0,0h0l-.07,0h-.18Z"/>
        <path d="M89.22,38.77l-.1-.13-.1.06,0,0a.16.16,0,0,1,0,.09.12.12,0,0,1,0,.12.15.15,0,0,1-.22,0,.19.19,0,0,1,0-.1h0a.2.2,0,0,0,0,.08.1.1,0,0,0,.13,0c.05,0,.06-.09,0-.16s0,0,0,0l.18-.11.13.16Z"/>
        <path d="M89.05,39a.12.12,0,0,1,.14,0h0a.09.09,0,0,1,0-.11.13.13,0,0,1,.17,0,.12.12,0,0,1,0,.17.1.1,0,0,1-.12,0h0a.12.12,0,0,1,0,.14.13.13,0,0,1-.19,0A.12.12,0,0,1,89.05,39Zm.14.18s0-.08,0-.13a.08.08,0,0,0-.12,0,.09.09,0,0,0,0,.12A.08.08,0,0,0,89.19,39.18Zm.08-.26a.08.08,0,0,0,0,.11.08.08,0,0,0,.1,0,.06.06,0,0,0,0-.1A.06.06,0,0,0,89.27,38.92Z"/>
      </g>
      <g>
        <path d="M86.13,38.63l.09-.07-.12-.15,0,0h.33l0,.05-.21.16,0,.05,0,0,0,0-.09.07Zm.12-.1.12-.08a.1.1,0,0,1,0,0h-.25Z"/>
        <path d="M86.68,38.73l-.1-.13-.1,0,0,0a.12.12,0,0,1,0,.08.12.12,0,0,1-.05.12.17.17,0,0,1-.25-.14h0a.16.16,0,0,0,0,.09.09.09,0,0,0,.13,0s0-.09,0-.16l0,0,.18-.11.12.17Z"/>
        <path d="M86.48,39l0,0a.13.13,0,0,0,.09,0,.18.18,0,0,0,.12,0h0a.19.19,0,0,1-.1,0,.13.13,0,0,1,0-.19.15.15,0,0,1,.21,0c0,.07,0,.15-.06.22a.24.24,0,0,1-.2.06.17.17,0,0,1-.12-.06s0,0,0,0Zm.21-.13a.08.08,0,0,0,0,.12.12.12,0,0,0,.09,0h0c.06,0,.09-.1,0-.15A.09.09,0,0,0,86.69,38.89Z"/>
      </g>
      <g>
        <path d="M90.85,40.45l.09-.07-.12-.16,0,0,.33,0,0,0-.21.16,0,0,0,0,0,0-.09.07Zm.13-.1.11-.09.06,0h-.26Z"/>
        <path d="M91.4,40.54l-.1-.13-.09.06,0,0a.36.36,0,0,1,0,.09.16.16,0,0,1,0,.12.15.15,0,0,1-.21,0,.23.23,0,0,1-.05-.1l.05,0a.19.19,0,0,0,0,.09.1.1,0,0,0,.14,0s0-.08,0-.15l0,0,.18-.1.12.16Z"/>
        <path d="M91.61,40.79l0,0a.17.17,0,0,0-.21,0h0a.12.12,0,0,1,.1,0,.11.11,0,0,1,0,.18.13.13,0,0,1-.2,0c-.06-.07,0-.16.05-.23a.24.24,0,0,1,.19-.06.27.27,0,0,1,.14.07l0,0Zm-.21.14a.09.09,0,0,0,0-.13.1.1,0,0,0-.1,0h0c-.06,0-.08.1,0,.15S91.35,41,91.4,40.93Z"/>
      </g>
      <g>
        <path d="M85.66,40.29l.09-.07-.12-.16,0,0L86,40l0,0-.21.16,0,.05,0,0,0-.05-.09.07Zm.13-.1.11-.09,0,0H85.7Z"/>
        <path d="M86.21,40.37l0,0a.17.17,0,0,0-.21,0h0a.12.12,0,0,1,.1,0,.13.13,0,0,1,0,.19.13.13,0,0,1-.2,0c-.06-.07,0-.16,0-.23a.22.22,0,0,1,.19-.06.25.25,0,0,1,.14.06l0,0ZM86,40.5a.09.09,0,0,0,0-.13.1.1,0,0,0-.09,0h0a.12.12,0,0,0,0,.15A.09.09,0,0,0,86,40.5Z"/>
        <path d="M86.31,40.76c-.12.09-.22.1-.27,0s0-.16.08-.24.22-.09.27,0S86.41,40.68,86.31,40.76Zm-.15-.18c-.09.07-.12.14-.09.18s.11,0,.2,0,.12-.13.08-.18S86.25,40.51,86.16,40.58Z"/>
      </g>
      <g>
        <path d="M85.48,35.37l.09-.07-.12-.15,0,0h.33l0,0-.21.17,0,0,0,0,0,0-.09.08Zm.12-.1.12-.08a.1.1,0,0,1,0,0h-.25Z"/>
        <path d="M85.92,35.59c-.12.08-.21.09-.27,0s0-.16.09-.25.21-.09.26,0S86,35.5,85.92,35.59Zm-.15-.18c-.09.06-.12.13-.08.17s.1,0,.19,0,.12-.13.08-.17S85.86,35.34,85.77,35.41Z"/>
        <path d="M86.23,35.71l0,0a.17.17,0,0,0-.21,0h0a.1.1,0,0,1,.1.05.13.13,0,0,1,0,.19.15.15,0,0,1-.21,0,.15.15,0,0,1,0-.23.29.29,0,0,1,.2-.07.42.42,0,0,1,.13.07l0,0Zm-.2.14a.1.1,0,0,0,0-.13.1.1,0,0,0-.09,0h0a.12.12,0,0,0,0,.15A.1.1,0,0,0,86,35.85Z"/>
      </g>
    </g>
  </g>
  <g id="Line_Routes" data-name="Line Routes">
    <line class="cls-1" x1="85.69" y1="53.96" x2="85.69" y2="49.65"/>
    <line class="cls-1" x1="62.78" y1="17.18" x2="59.73" y2="14.14"/>
    <line class="cls-1" x1="36.61" y1="-20.86" x2="65.66" y2="8.21"/>
    <line class="cls-1" x1="65.66" y1="8.21" x2="68.71" y2="11.26"/>
    <path class="cls-1" d="M68.71,11.26,85.88,28.44a27.84,27.84,0,0,1,8.2,20v1.25"/>
    <line class="cls-1" x1="94.08" y1="49.65" x2="94.08" y2="53.96"/>
    <path class="cls-1" d="M94.08,54V167.65a19.81,19.81,0,0,0,1.54,7.63,19.61,19.61,0,0,0,18,12H174"/>
    <path class="cls-1" d="M85.69,54V167.65a28.2,28.2,0,0,0,.57,5.65,27.43,27.43,0,0,0,1.63,5.24,28.12,28.12,0,0,0,14.89,14.9,27.82,27.82,0,0,0,10.89,2.2H174"/>
    <path class="cls-1" d="M62.78,17.18,80,34.37a19.53,19.53,0,0,1,5.74,14.12v1.16"/>
    <line class="cls-1" x1="30.68" y1="-14.93" x2="59.73" y2="14.14"/>
  </g>
  <g id="Circuit_IDs" data-name="Circuit IDs">
    <g>
      <path d="M63.93,7.13l-.07-.06.47-.47h0l0,0-.06,0,0,0,.07-.06.06,0,.06,0h.13l0,0Z"/>
      <path d="M65,7.15l-.08,0-.11,0-.13,0-.13,0-.13.07-.12.08-.07-.06.12-.08.13-.07.13,0,.13,0,.1,0,.07,0-.27-.27.05-.06.35.35Z"/>
      <path d="M64.68,7.58a.1.1,0,0,1,0,0l.06,0h.13a.34.34,0,0,1,0-.1.19.19,0,0,1,0-.09.18.18,0,0,1,.07,0h.07l.08,0a.18.18,0,0,1,.07,0,.15.15,0,0,1,0,.07.31.31,0,0,1,0,.08.22.22,0,0,1,0,.08.21.21,0,0,1,0,.06.14.14,0,0,1-.09.05h-.11a.14.14,0,0,1,0,.06v.07l0,.06,0,0L65,8l-.09,0a.16.16,0,0,1-.09,0,.21.21,0,0,1-.08-.06l-.06-.08a.29.29,0,0,1,0-.09.19.19,0,0,1,0-.08A.16.16,0,0,1,64.68,7.58Zm.07.06,0,.05a.19.19,0,0,0,0,.12l0,.05a.1.1,0,0,0,0,0h.11l.06,0,0-.05a.18.18,0,0,0,0-.12s0,0,0-.05l0,0H64.8A.1.1,0,0,0,64.75,7.64ZM65,7.41l0,0a.09.09,0,0,0,0,0,.11.11,0,0,0,0,0l0,0,0,0h.1l0,0,0,0a.06.06,0,0,0,0,0,.07.07,0,0,0,0,0l0,0a.05.05,0,0,0,0,0h-.1A.05.05,0,0,0,65,7.41Z"/>
    </g>
    <g>
      <path d="M61.86,5.05,61.79,5l.47-.47h-.08l-.06,0,0,0,.07-.07s0,0,.06,0l.06,0h.13l0,0Z"/>
      <path d="M62.89,5.07l-.08,0a.45.45,0,0,0-.11,0l-.13,0-.13.05-.13.07-.12.08-.07-.06.12-.08.13-.07.13-.06.13,0,.1,0,.07,0-.27-.27,0-.06.35.34Z"/>
      <path d="M63.31,5.49l-.08,0-.11,0L63,5.6l-.13.05-.14.07-.11.08-.07-.07.12-.07.13-.07.13-.06.12,0,.11,0,.07,0-.28-.28.06,0,.35.34Z"/>
    </g>
    <g>
      <path d="M59.77,3l-.06-.06.47-.47h-.09l-.05,0,0,0,.06-.07.06,0,.07,0h.13l0,0Z"/>
      <path d="M60.81,3l-.09,0-.11,0-.12,0-.14.05-.13.07-.12.08L60,3.25a.36.36,0,0,1,.12-.08l.13-.07L60.42,3l.12,0,.1,0,.07,0-.27-.27.06-.06.34.34Z"/>
      <path d="M60.9,3.76a.24.24,0,0,1-.09.06l-.09,0h-.1l-.08-.06a.2.2,0,0,1,0-.09.17.17,0,0,1,0-.1.56.56,0,0,1,0-.12l.1-.11a.53.53,0,0,1,.14-.12l.14,0a.22.22,0,0,1,.14,0,.19.19,0,0,1,.11.07.35.35,0,0,1,.08.1l-.06.06a.41.41,0,0,0-.07-.11L61,3.26h-.1a.21.21,0,0,0-.1,0,.38.38,0,0,0-.11.08h0a.18.18,0,0,1,.19.06l.05.07a.14.14,0,0,1,0,.09.13.13,0,0,1,0,.08A.35.35,0,0,1,60.9,3.76Zm-.08-.06s0,0,0-.06,0,0,0-.05,0,0,0-.06l0-.06-.05,0h-.12l-.05,0s0,0,0,.06a.14.14,0,0,0,0,.06v.07l0,.05a.05.05,0,0,0,0,0h.06l.06,0A.07.07,0,0,0,60.82,3.7Z"/>
    </g>
    <g>
      <path d="M57.71.91,57.65.85l.47-.47h0l0,0H58l0,0L58,.26l.06,0,.06,0,.07,0h.06l0,0Z"/>
      <path d="M58.74.93l-.08,0-.11,0L58.42,1a.75.75,0,0,0-.13.06l-.13.06L58,1.24,58,1.18l.12-.08L58.22,1,58.36,1l.12,0,.1,0,.07,0L58.38.61l0-.06.35.35Z"/>
      <path d="M58.8,1.68l-.08.06h-.1l-.09,0-.09-.07a.38.38,0,0,1-.09-.13l.06-.07a.36.36,0,0,0,.08.15l.06,0,.07,0h.06l.06,0a.15.15,0,0,0,0-.12.17.17,0,0,0-.07-.13l0,0,0,0,0,0,0,0,.3-.26.25.26-.06.05-.2-.2-.17.15,0,0s0,0,0,0a.28.28,0,0,1,.07.09.32.32,0,0,1,0,.09.29.29,0,0,1,0,.09A.21.21,0,0,1,58.8,1.68Z"/>
    </g>
    <g>
      <path d="M66.49,9.7l-.06-.06.47-.47h-.09l0,0-.06,0L66.77,9l.06,0,.06,0,.07,0H67l0,0Z"/>
      <path d="M67.52,9.72l-.08,0-.11,0-.13,0-.13.06-.13.07a.36.36,0,0,0-.12.08L66.75,10l.12-.08L67,9.82l.14-.06.12,0,.1,0h.07l-.27-.28,0-.05.35.34Z"/>
      <path d="M67.74,10.34l-.15.12-.14,0a.19.19,0,0,1-.13,0,.21.21,0,0,1-.12-.07.38.38,0,0,1-.08-.11l.06-.06a.25.25,0,0,0,.08.12l.08,0h.09a.14.14,0,0,0,.1,0l.11-.08h0a.18.18,0,0,1-.19-.06.12.12,0,0,1,0-.07.15.15,0,0,1,0-.09.19.19,0,0,1,0-.08.35.35,0,0,1,.14-.14.38.38,0,0,1,.1,0l.09,0a.16.16,0,0,1,.08.06.24.24,0,0,1,.06.09.17.17,0,0,1,0,.1.3.3,0,0,1,0,.11A.47.47,0,0,1,67.74,10.34Zm0-.12a.23.23,0,0,0,0-.07l0-.07a.13.13,0,0,0,0-.06l0,0-.06,0h-.11l-.06,0,0,.06a.14.14,0,0,0,0,.06.13.13,0,0,0,0,.06.29.29,0,0,0,.09.09h.11Z"/>
    </g>
    <g>
      <path d="M94.52,48V48l-.67,0s0,0,0,0l0,0,0,0s0,0,0,0h-.09a.14.14,0,0,0,0-.06l0-.06,0-.06,0,0v0Z"/>
      <path d="M94.3,47.7h-.06l-.06,0s0,0-.05-.05l0,0a.24.24,0,0,1-.06.08.19.19,0,0,1-.1,0h-.08a.15.15,0,0,1-.06-.05l-.05-.06a.28.28,0,0,1,0-.09.14.14,0,0,1,0-.09.25.25,0,0,1,0-.07.09.09,0,0,1,.06,0l.07,0,.1,0a.3.3,0,0,1,.08.08s0,0,0-.06,0,0,0,0l0,0h.06l.1,0a.15.15,0,0,1,.07.05.18.18,0,0,1,0,.07.36.36,0,0,1,0,.1.31.31,0,0,1,0,.1.16.16,0,0,1-.05.08.13.13,0,0,1-.07.06Zm-.37-.11h0l0,0,0,0a.09.09,0,0,0,0,0s0,0,0-.05l0,0,0,0h-.1a.05.05,0,0,0,0,0,.05.05,0,0,0,0,0,.07.07,0,0,0,0,0,.09.09,0,0,0,0,.05l0,0,0,0Zm.36,0,.07,0,0,0a.05.05,0,0,0,0-.05.13.13,0,0,0,0-.06.15.15,0,0,0,0-.07l0,0-.06,0h-.12l0,0,0,0a.15.15,0,0,0,0,.07.13.13,0,0,0,0,.06.08.08,0,0,0,0,0,.1.1,0,0,0,0,0Z"/>
      <path d="M94.05,46.63a.59.59,0,0,1,.19,0,.35.35,0,0,1,.14.06.2.2,0,0,1,.09.09.28.28,0,0,1,0,.13.32.32,0,0,1,0,.14H94.4a.32.32,0,0,0,0-.14.16.16,0,0,0,0-.09.13.13,0,0,0-.06-.07l-.1,0H94.1a.17.17,0,0,1,.1.16.31.31,0,0,1,0,.1l0,.07a.18.18,0,0,1-.07.05l-.1,0-.1,0a.16.16,0,0,1-.09-.05.18.18,0,0,1,0-.07.21.21,0,0,1,0-.2.27.27,0,0,1,.07-.08l.11-.05Zm-.08.09-.08,0-.06,0,0,0a.13.13,0,0,0,0,.06.35.35,0,0,0,0,.06l0,.05.06,0H94L94,47a.12.12,0,0,0,.08-.08.18.18,0,0,0,0-.12l0-.05,0,0Z"/>
    </g>
    <g>
      <path d="M92.94,42.12l0-.09.65-.13,0,0,0,0,0-.05s0,0,0,0l.08,0,0,.06,0,.06,0,0,0,0v0Z"/>
      <path d="M93.2,42.32h.12l.06,0s0,0,.05.05a.19.19,0,0,1,0-.09.16.16,0,0,1,.09,0h.08l.07,0,0,.06a.2.2,0,0,1,0,.08v.09s0,.05,0,.07a.1.1,0,0,1,0,.06.11.11,0,0,1-.07,0,.11.11,0,0,1-.1,0,.15.15,0,0,1-.09-.06.19.19,0,0,1,0,.07l0,0,0,0-.06,0h-.09a.19.19,0,0,1-.08,0l-.07-.07a.29.29,0,0,1,0-.1.34.34,0,0,1,0-.1l0-.09.06-.06Zm0,.09-.06,0a.1.1,0,0,0,0,0s0,0,0,.05v.07l0,.06,0,0,0,0h.07s0,0,.06,0l0,0a.08.08,0,0,0,0,0,.08.08,0,0,0,0-.07.08.08,0,0,0,0-.05l0,0-.06,0Zm.35,0,0,0,0,0s0,0,0,0v.05s0,0,0,0l0,0,0,0h0l.05,0a.08.08,0,0,0,0,0s0,0,0,0a0,0,0,0,0,0-.05.08.08,0,0,0,0,0l0,0h-.1Z"/>
      <path d="M93.32,42.9h.12l.06,0,0,0a.19.19,0,0,1,0-.09.16.16,0,0,1,.09,0h.08l.07,0,0,.06a.2.2,0,0,1,0,.08v.09l0,.07a.1.1,0,0,1-.05.06.11.11,0,0,1-.07,0,.11.11,0,0,1-.1,0,.15.15,0,0,1-.09-.06.19.19,0,0,1,0,.07l0,0,0,0-.06,0h-.09l-.08,0s0,0-.07-.06a.29.29,0,0,1,0-.1.34.34,0,0,1,0-.1l0-.09.06-.06Zm0,.09-.07,0,0,0a.08.08,0,0,0,0,0v.07l0,0a.1.1,0,0,0,0,.05l0,0h.07l.06,0,0,0a.08.08,0,0,0,0,0v-.07a.08.08,0,0,0,0,0s0,0-.05-.05l0,0Zm.35,0,0,0,0,0s0,0,0,0v.05a.05.05,0,0,0,0,0,.08.08,0,0,0,0,0l0,0h0l0,0s0,0,0,0a.08.08,0,0,0,0,0,0,0,0,0,0,0-.05.08.08,0,0,0,0,0l0,0h0A0,0,0,0,0,93.7,43Z"/>
    </g>
    <g>
      <path d="M91.51,37.64l0-.08.62-.24,0,0,0,0,0,0,0,0,.09,0a.1.1,0,0,0,0,.05.12.12,0,0,0,.05,0l0,0a.09.09,0,0,0,.06,0v0Z"/>
      <path d="M91.8,37.8h.12l.06,0,.06,0a.18.18,0,0,1,0-.1.19.19,0,0,1,.08-.07h.07l.08,0,.06,0,0,.07a.28.28,0,0,1,0,.09.11.11,0,0,1,0,.08.21.21,0,0,1,0,.06.18.18,0,0,1-.07.05h-.1a.18.18,0,0,1-.09,0s0,0,0,.07l0,0,0,0a.05.05,0,0,1,0,0,.15.15,0,0,1-.09,0l-.09,0a.19.19,0,0,1-.07-.06.19.19,0,0,1,0-.09.16.16,0,0,1,0-.1.19.19,0,0,1,0-.08.22.22,0,0,1,0-.08Zm0,.09s0,0-.06,0l0,0a.07.07,0,0,0,0,.05.2.2,0,0,0,0,.07l0,0s0,0,0,0l.06,0,.06,0,.06,0,0,0a.07.07,0,0,0,0-.05A.17.17,0,0,0,92,38l0,0s0,0-.05,0l-.06,0Zm.34-.11,0,0,0,0a.07.07,0,0,0,0,0,.11.11,0,0,0,0,.05.05.05,0,0,0,0,0l0,0h.1l0,0,0,0s0,0,0-.05a.11.11,0,0,0,0,0l0,0,0,0h-.1Z"/>
      <path d="M92.66,38.63l-.08,0H92l-.14,0,0-.09.14,0h.6l-.14-.36.07,0,.18.46Z"/>
    </g>
    <g>
      <path d="M89.34,33.5l0-.07.57-.35h0l0,0,0,0,0,0,.07,0,.06,0a.1.1,0,0,0,.05,0l.07,0,0,0,0,0Z"/>
      <path d="M89.65,33.61l.06,0h.13l.06,0a.18.18,0,0,1,0-.1.18.18,0,0,1,.07-.08l.07,0a.11.11,0,0,1,.08,0l.07,0,.06.07,0,.08v.08l0,.07-.06.05a.17.17,0,0,1-.1,0,.19.19,0,0,1-.1,0v.07a.14.14,0,0,1,0,.06L90,34l0,0-.09,0h-.09l-.08,0-.06-.08a.3.3,0,0,1,0-.1.14.14,0,0,1,0-.09.13.13,0,0,1,0-.08A.13.13,0,0,1,89.65,33.61Zm.06.07,0,0,0,.05v.06a.14.14,0,0,0,0,.06l0,.05,0,0h.06l.06,0,0,0s0,0,0,0a.06.06,0,0,0,0-.06.14.14,0,0,0,0-.06.1.1,0,0,0,0-.05l0,0h-.06Zm.32-.16,0,0,0,0a0,0,0,0,0,0,0,.09.09,0,0,0,0,.05l0,0,0,0h0l0,0,0,0,0,0v0l0,0,0,0,0,0h-.05Z"/>
      <path d="M90.24,34.52a.18.18,0,0,1-.09,0h-.1a.12.12,0,0,1-.08,0,.16.16,0,0,1-.07-.07.42.42,0,0,1,0-.1.36.36,0,0,1,0-.1.36.36,0,0,1,.07-.1l.12-.09a.65.65,0,0,1,.17-.08l.15,0,.13,0a.18.18,0,0,1,.09.1.21.21,0,0,1,0,.12l-.07,0a.21.21,0,0,0,0-.12.16.16,0,0,0-.07-.07.16.16,0,0,0-.09,0,.23.23,0,0,0-.11,0l-.12,0h0a.19.19,0,0,1,.17.1.16.16,0,0,1,0,.09.11.11,0,0,1,0,.08.2.2,0,0,1,0,.08A.24.24,0,0,1,90.24,34.52Zm0-.07,0,0a.21.21,0,0,0,0-.06V34.3a.25.25,0,0,0,0-.07l0,0-.06,0H90.1l0,0-.06,0,0,.06s0,0,0,.06a.64.64,0,0,0,0,.07l.05,0,0,0s0,0,.06,0S90.17,34.47,90.19,34.45Z"/>
    </g>
    <g>
      <path d="M86.49,29.75l-.06-.07.5-.44h0l0,0,0,0-.05,0,.07-.06.06,0,.06,0,.07,0,.06,0,0,0Z"/>
      <path d="M86.81,29.8l.06,0h.06a.06.06,0,0,1,.06,0l.07,0a.21.21,0,0,1,0-.11.22.22,0,0,1,0-.08l.07,0h.08l.08,0,.06.05a.18.18,0,0,1,0,.08.09.09,0,0,1,0,.07.19.19,0,0,1,0,.08.15.15,0,0,1,0,.06.12.12,0,0,1-.09,0,.14.14,0,0,1-.11,0,.2.2,0,0,1,0,.07v.07l0,.06,0,0-.08,0H87s-.06,0-.08,0a.27.27,0,0,1-.08-.07.16.16,0,0,1-.06-.08.28.28,0,0,1,0-.09.15.15,0,0,1,0-.09A.18.18,0,0,1,86.81,29.8Zm.07.06a.21.21,0,0,0,0,.06.08.08,0,0,0,0,0,.13.13,0,0,0,0,.06.1.1,0,0,0,0,0s0,0,0,0l.06,0H87l.06,0,0-.05a.14.14,0,0,0,0-.06.13.13,0,0,0,0-.06s0,0,0-.05a.1.1,0,0,0,0,0l0,0h-.06Zm.29-.21a.05.05,0,0,0,0,0l0,0s0,0,0,.05,0,0,0,0l0,0h.09l0,0,0,0a.09.09,0,0,0,0-.05.11.11,0,0,0,0-.05l0,0,0,0h-.1Z"/>
      <path d="M87.53,30.58a.24.24,0,0,1-.09.06h-.1l-.09,0-.09-.08a.29.29,0,0,1-.08-.14l.07-.06a.26.26,0,0,0,.07.15l.06.05.06,0s0,0,.07,0l.06,0a.17.17,0,0,0,0-.12.19.19,0,0,0-.06-.13l0,0,0,0,0,0,0,0,.3-.23.24.27-.06.05-.19-.21-.18.13,0,0,0,0a.24.24,0,0,1,.06.09.21.21,0,0,1,0,.18Z"/>
    </g>
    <g>
      <path d="M83.18,26.4l-.06-.06.47-.47H83.5l0,0,0,0,.06-.06.06,0,.07,0,.06,0h.06l0,0Z"/>
      <path d="M83.51,26.42l0,0,.06,0h.07l.07,0a.16.16,0,0,1,0-.19l.06-.05h.08l.08,0,.07.05,0,.07a.24.24,0,0,1,0,.08.22.22,0,0,1,0,.08l-.05.06a.13.13,0,0,1-.09.05.17.17,0,0,1-.1,0,.64.64,0,0,0,0,.07.17.17,0,0,1,0,.07.14.14,0,0,1,0,.06l0,.05-.07,0a.14.14,0,0,1-.09,0l-.09,0a.35.35,0,0,1-.14-.14.15.15,0,0,1,0-.09.14.14,0,0,1,0-.09A.35.35,0,0,1,83.51,26.42Zm.07.07a.09.09,0,0,0,0,.05.14.14,0,0,0,0,.06.08.08,0,0,0,0,0s0,0,0,.06l0,0h.06a.07.07,0,0,0,.06,0l0,0,0-.05a.18.18,0,0,0,0-.12.29.29,0,0,0-.09-.09h-.11Zm.28-.24s0,0,0,.05a.07.07,0,0,0,0,.05.06.06,0,0,0,0,0,.05.05,0,0,0,0,0s0,0,.05,0H84s0,0,.05,0l0,0v-.1l0,0-.05,0H83.9Z"/>
      <path d="M84.61,26.74l-.36.36.07.07-.06,0-.07-.06-.12.12L84,27.22l.13-.13-.25-.25.05-.06h.16l.16,0,.16,0,.13,0Zm-.61.11.19.19.27-.27-.15,0-.12,0H84Z"/>
    </g>
    <g>
      <path d="M79.82,23,79.76,23l.47-.47h0l0,0,0,0,0,0,.06-.06.06,0,.07,0h.13l0,0Z"/>
      <path d="M80.15,23.07l0,0,.06,0h.07l.07,0a.45.45,0,0,1,0-.11.2.2,0,0,1,0-.09l.07,0,.07,0,.08,0a.2.2,0,0,1,.07.06.18.18,0,0,1,0,.07.19.19,0,0,1,0,.07.19.19,0,0,1,0,.08l0,.07a.18.18,0,0,1-.09,0,.21.21,0,0,1-.11,0,.14.14,0,0,1,0,.07.13.13,0,0,1,0,.06.14.14,0,0,1,0,.06l0,.05a.18.18,0,0,1-.08,0,.15.15,0,0,1-.09,0l-.09,0-.08-.06a.24.24,0,0,1-.06-.09.31.31,0,0,1,0-.08.28.28,0,0,1,0-.09A.22.22,0,0,1,80.15,23.07Zm.08.06a.21.21,0,0,0,0,.06.07.07,0,0,0,0,0,.13.13,0,0,0,0,.06.29.29,0,0,0,.09.09h.11l.06,0,0-.05a.19.19,0,0,0,0-.12l0-.05a.09.09,0,0,0-.06,0l0,0-.06,0A.09.09,0,0,0,80.23,23.13Zm.27-.23,0,0a.13.13,0,0,0,0,.1s0,0,0,0l0,0h.1l0,0,0,0a.43.43,0,0,1,0-.05s0,0,0,0l0,0a.05.05,0,0,0,0,0h-.1Z"/>
      <path d="M80.9,23.81a.16.16,0,0,1-.08.06h-.09a.16.16,0,0,1-.09,0l-.09-.06a.41.41,0,0,1-.1-.16l.07-.06a.3.3,0,0,0,.08.16l.06.05.06,0h.06l0,0c.07-.08.06-.16,0-.26l-.05-.05.05-.05,0,0c.09.09.17.1.23,0a.13.13,0,0,0,0-.2.23.23,0,0,0-.14-.07l.06-.06.15.09a.35.35,0,0,1,.05.08.1.1,0,0,1,0,.07.09.09,0,0,1,0,.07s0,.05,0,.06a.17.17,0,0,1-.25,0h0a.21.21,0,0,1,0,.06.15.15,0,0,1,0,.07.13.13,0,0,1,0,.06A.09.09,0,0,1,80.9,23.81Z"/>
    </g>
    <g>
      <path d="M76.45,19.66l-.07-.06.47-.47h-.08l-.06,0,0,0,.07-.06,0,0,.07,0,.07,0H77l0,0Z"/>
      <path d="M76.78,19.68l0,0a.08.08,0,0,1,.06,0H77l.07,0a.34.34,0,0,1,0-.1.19.19,0,0,1,0-.09.18.18,0,0,1,.07-.05h.07l.08,0a.18.18,0,0,1,.07.05l.05.07a.24.24,0,0,1,0,.08.22.22,0,0,1,0,.08.21.21,0,0,1,0,.06.2.2,0,0,1-.09.05.14.14,0,0,1-.11,0,.25.25,0,0,1,0,.07v.07l0,.06,0,.05-.08.05a.14.14,0,0,1-.09,0,.15.15,0,0,1-.09,0,.21.21,0,0,1-.08-.06.24.24,0,0,1-.06-.08.29.29,0,0,1,0-.09.28.28,0,0,1,0-.09Zm.07.07a.1.1,0,0,0,0,.05.19.19,0,0,0,0,.12l0,0a.09.09,0,0,0,.05,0L77,20,77,20s0,0,.06,0l0,0a.19.19,0,0,0,0-.12.09.09,0,0,0,0-.05l0,0H76.9A.1.1,0,0,0,76.85,19.75Zm.27-.24,0,0a.07.07,0,0,0,0,.05.06.06,0,0,0,0,0l0,.05,0,0h.1a.05.05,0,0,0,0,0l0,0a.07.07,0,0,0,0,0,.06.06,0,0,0,0,0l0,0,0,0h-.05l0,0Z"/>
      <path d="M77.7,20.11a.1.1,0,0,0,0-.05s0,0,0,0,0,0,0-.05,0,0,0-.05l0,0,0,0H77.5l.07-.07.1,0,.09.07,0,.07a.12.12,0,0,1,0,.08.12.12,0,0,1,0,.08l0,.07a.18.18,0,0,1-.07,0l-.07,0h-.18l-.11,0a.08.08,0,0,0-.07,0h-.06l0,0,.27.27-.06.06-.33-.34,0,0a.17.17,0,0,1,.06-.06l.08,0h.09l.13,0h.16l.05,0A.1.1,0,0,0,77.7,20.11Z"/>
    </g>
    <g>
      <path d="M73.13,16.34l-.06-.06.47-.47h0l0,0h0l-.05,0,.06-.06.06,0,.07,0,.07,0h.06l0,0Z"/>
      <path d="M73.46,16.37l.05,0,.06,0h.07l.07,0a.21.21,0,0,1,0-.11.2.2,0,0,1,0-.09l.07,0h.07a.12.12,0,0,1,.08,0,.12.12,0,0,1,.07,0,.18.18,0,0,1,0,.07.19.19,0,0,1,0,.08.17.17,0,0,1,0,.07.18.18,0,0,1,0,.07l-.08,0h-.11a.14.14,0,0,1,0,.07.13.13,0,0,1,0,.06.14.14,0,0,1,0,.06l0,0-.08.06h-.09l-.09,0-.08-.06-.06-.08a.29.29,0,0,1,0-.09.28.28,0,0,1,0-.09A.22.22,0,0,1,73.46,16.37Zm.08.06a.21.21,0,0,0,0,.06s0,0,0,.05a.07.07,0,0,0,0,.06l0,0,.06,0h.11a.29.29,0,0,0,.09-.09.13.13,0,0,0,0-.06.09.09,0,0,0,0-.05l0-.06-.06,0h-.11A.09.09,0,0,0,73.54,16.43Zm.27-.23a.05.05,0,0,0,0,0,.13.13,0,0,0,0,.1.05.05,0,0,0,0,0l0,0h.09l0,0,0,0s0,0,0-.05,0,0,0-.05l0,0,0,0h-.1Z"/>
      <path d="M74,17.18l-.06-.06.47-.47h-.09l-.05,0,0,0,.06-.07.06,0,.07,0h.12l0,0Z"/>
    </g>
    <g>
      <path d="M69.69,12.91l-.06-.07.47-.47H70l-.05,0,0,0,.06-.06.06,0,.07,0,.07,0h.06l0,0Z"/>
      <path d="M70,12.93l0,0,.06,0h.07l.07,0a.21.21,0,0,1,0-.11.2.2,0,0,1,0-.09l.07,0h.07l.08,0,.07.05a.18.18,0,0,1,.05.07.24.24,0,0,1,0,.08.17.17,0,0,1,0,.07.18.18,0,0,1,0,.07.19.19,0,0,1-.09.05h-.1s0,.05,0,.07a.2.2,0,0,1,0,.07.14.14,0,0,1,0,.06l0,0-.08.05h-.09l-.09,0a.16.16,0,0,1-.08-.06.21.21,0,0,1-.06-.08.29.29,0,0,1,0-.09A.14.14,0,0,1,70,13,.35.35,0,0,1,70,12.93Zm.08.07a.1.1,0,0,0,0,.05.14.14,0,0,0,0,.06l0,.05,0,.06.06,0h.11a.29.29,0,0,0,.09-.09.07.07,0,0,0,0-.05.13.13,0,0,0,0-.06l0-.06-.06,0h-.11A.1.1,0,0,0,70.1,13Zm.27-.24a.05.05,0,0,0,0,.05.06.06,0,0,0,0,0,.07.07,0,0,0,0,.05s0,0,0,0,0,0,0,0h.09l0,0,0,0s0,0,0-.05,0,0,0,0l0,0,0,0h-.09Z"/>
      <path d="M70.92,13.58a.67.67,0,0,1-.14.11.21.21,0,0,1-.12.05h-.11a.21.21,0,0,1-.1-.06.18.18,0,0,1-.06-.09v-.1a.34.34,0,0,1,.06-.12.57.57,0,0,1,.1-.13.67.67,0,0,1,.14-.11.34.34,0,0,1,.12-.06h.12l.09.06C71.14,13.25,71.1,13.4,70.92,13.58Zm-.07-.06c.15-.15.19-.26.12-.34s-.2,0-.35.12-.19.26-.11.34S70.7,13.67,70.85,13.52Z"/>
    </g>
    <g>
      <path d="M94.51,52.49v.09h-.67l0,0s0,0,0,0l0,.05s0,0,0,0h-.09a.14.14,0,0,0,0-.06l0-.06,0-.06,0,0v0Z"/>
      <path d="M94.08,51.75l.18,0,.14.06a.28.28,0,0,1,.09.1.28.28,0,0,1,0,.13.29.29,0,0,1,0,.14h-.08a.33.33,0,0,0,0-.14.16.16,0,0,0,0-.09.13.13,0,0,0-.06-.07l-.1,0-.14,0h0a.18.18,0,0,1,.1.17.16.16,0,0,1,0,.1.15.15,0,0,1,0,.07l-.07,0-.1,0-.1,0-.08,0a.24.24,0,0,1-.06-.08.31.31,0,0,1,0-.1.16.16,0,0,1,0-.1.16.16,0,0,1,.07-.07.19.19,0,0,1,.11,0Zm-.08.1h-.08l-.07,0,0,0a.19.19,0,0,0,0,.12l0,0,.05,0H94l.06,0,0,0a.13.13,0,0,0,0-.06.11.11,0,0,0,0-.06l0,0,0,0Z"/>
      <path d="M94.12,51.15l.17,0,.13,0a.18.18,0,0,1,.07.08.2.2,0,0,1,0,.11.17.17,0,0,1,0,.1.18.18,0,0,1-.07.08.33.33,0,0,1-.12,0H94l-.13,0a.6.6,0,0,1-.08-.08.23.23,0,0,1,0-.12Q93.73,51.15,94.12,51.15Zm0,.09c-.22,0-.33,0-.33.16s.11.16.33.16.32-.05.32-.16S94.34,51.24,94.13,51.24Z"/>
    </g>
    <g>
      <path d="M94.51,63.09v.09h-.67l0,0a.08.08,0,0,0,0,0l0,0s0,0,0,.06h-.09a.25.25,0,0,0,0-.07l0-.06,0-.06,0-.05v0Z"/>
      <path d="M94.08,62.35a.5.5,0,0,1,.18,0,.26.26,0,0,1,.14.06.28.28,0,0,1,.09.1.28.28,0,0,1,0,.13.25.25,0,0,1,0,.13h-.08a.28.28,0,0,0,0-.13.17.17,0,0,0,0-.1.19.19,0,0,0-.06-.07l-.1,0h-.14a.17.17,0,0,1,.1.17.15.15,0,0,1,0,.09.12.12,0,0,1,0,.07.18.18,0,0,1-.07,0l-.1,0-.1,0-.08,0-.06-.08a.34.34,0,0,1,0-.1.16.16,0,0,1,0-.1.18.18,0,0,1,.07-.08.28.28,0,0,1,.11,0Zm-.08.09h-.08l-.07,0,0,0a.15.15,0,0,0,0,.07.13.13,0,0,0,0,.06l0,0a.05.05,0,0,0,.05,0l.07,0,.07,0,.06,0,0-.05s0,0,0-.06a.13.13,0,0,0,0-.06l0,0a.1.1,0,0,0,0,0Z"/>
      <path d="M94.51,61.91V62h-.67l0,0s0,0,0,0l0,0s0,0,0,.05h-.09a.14.14,0,0,0,0-.06l0-.06,0-.06,0-.05v0Z"/>
    </g>
    <g>
      <path d="M58.21,13l-.08,0L58,13,58,13l-.09-.07a.3.3,0,0,1-.09-.15l.06-.07a.3.3,0,0,0,.08.17l.06,0H58s0,0,.06,0a.1.1,0,0,0,0,0c.08-.07.06-.15,0-.26l-.05,0,.06,0,0,0c.09.09.17.1.23,0s.06-.12,0-.19a.21.21,0,0,0-.14-.07l.06-.06a.27.27,0,0,1,.15.09s0,0,.06.07,0,0,0,.08,0,0,0,.07l0,.06a.18.18,0,0,1-.24,0h0l0,.07a.14.14,0,0,1,0,.07.14.14,0,0,1,0,.06S58.23,13,58.21,13Z"/>
      <path d="M59,13.06l-.09,0-.11,0-.12,0-.14.06-.13.07-.12.08-.06-.07.12-.08.13-.06.13-.06.12,0,.1,0,.07,0-.27-.27.06-.05L59,13Z"/>
      <path d="M59.43,13.48l-.09,0-.11,0-.12.05-.14.06-.13.07-.12.08-.07-.07.13-.08.13-.07.13-.05.12,0,.1,0,.07,0-.27-.27.06-.06.34.35Z"/>
    </g>
    <g>
      <path d="M56.14,10.89l-.08.06H56a.19.19,0,0,1-.1,0l-.09-.07a.3.3,0,0,1-.09-.15l.07-.07a.21.21,0,0,0,.08.17l.06,0,.06,0H56l0,0c.07-.07.06-.15,0-.25l0-.05.05,0,0,0c.09.09.17.1.24,0a.13.13,0,0,0,0-.2.26.26,0,0,0-.15-.07l.06-.06a.37.37,0,0,1,.16.09l.05.07a.24.24,0,0,1,0,.08.17.17,0,0,1,0,.07l0,.06a.19.19,0,0,1-.25,0h0a.25.25,0,0,1,0,.07.15.15,0,0,1,0,.07.13.13,0,0,1,0,.06Z"/>
      <path d="M56.93,11l-.08,0-.11,0-.13,0-.13.06-.13.07a.5.5,0,0,0-.12.08l-.07-.07.12-.08.13-.06.14-.06.12,0,.1,0,.07,0-.27-.28,0-.05.35.34Z"/>
      <path d="M57,11.74l-.09.06-.09,0a.15.15,0,0,1-.09,0l-.08-.05a.24.24,0,0,1-.06-.09.2.2,0,0,1,0-.11.3.3,0,0,1,0-.11.31.31,0,0,1,.09-.11.79.79,0,0,1,.15-.12.39.39,0,0,1,.14-.05h.13l.12.07a.28.28,0,0,1,.07.11l-.06.06a.24.24,0,0,0-.06-.11.16.16,0,0,0-.09,0h-.09l-.11,0a.41.41,0,0,0-.1.09h0a.19.19,0,0,1,.19.05.18.18,0,0,1,0,.08.13.13,0,0,1,0,.08.29.29,0,0,1,0,.09ZM57,11.68l0-.06a.14.14,0,0,0,0-.06.09.09,0,0,0,0-.05l0-.06-.06,0H56.8l0,0,0,.06a.64.64,0,0,1,0,.07.13.13,0,0,0,0,.06l0,.06.05,0h.06l.06,0Z"/>
    </g>
    <g>
      <path d="M54.07,8.83,54,8.88H53.9l-.09,0-.09-.07a.3.3,0,0,1-.09-.15l.06-.07a.38.38,0,0,0,.08.17l.06,0,.06,0H54a.05.05,0,0,0,0,0c.08-.07.06-.16,0-.26l-.05,0L54,8.41l0,.05c.09.09.17.1.23,0s.06-.13,0-.19a.17.17,0,0,0-.14-.07l.06-.06a.3.3,0,0,1,.15.09l.06.07s0,.05,0,.07,0,0,0,.07a.18.18,0,0,1,0,.07.18.18,0,0,1-.24,0h0l0,.06a.25.25,0,0,1,0,.07.19.19,0,0,1,0,.07S54.09,8.81,54.07,8.83Z"/>
      <path d="M54.87,8.91l-.09,0-.11,0-.12,0-.14.06-.13.06-.12.08-.06-.06a.36.36,0,0,1,.12-.08L54.35,9l.13,0,.12-.05.1,0,.07,0-.27-.27.06-.06.34.35Z"/>
      <path d="M54.93,9.66l-.09.06h-.09l-.1,0-.09-.07a.31.31,0,0,1-.09-.13l.07-.07a.35.35,0,0,0,.07.15l.07,0,.06,0h.06l.06,0a.16.16,0,0,0,0-.12.21.21,0,0,0-.07-.13l0,0,0,0,0,0,0,0L55,9l.25.26-.05.05-.2-.2-.17.15,0,0,0,0L55,9.4a.29.29,0,0,1,0,.09.28.28,0,0,1,0,.09Z"/>
    </g>
    <g>
      <path d="M52,6.74l-.09,0h-.09a.16.16,0,0,1-.09,0,.24.24,0,0,1-.09-.06.33.33,0,0,1-.09-.16l.06-.06a.32.32,0,0,0,.09.17.1.1,0,0,0,.05,0l.06,0h.06s0,0,.06,0,0-.16-.05-.26l0,0,.05,0,0,0c.09.09.17.11.24,0s.05-.13,0-.2A.35.35,0,0,0,52,6.13l.06-.06a.36.36,0,0,1,.15.1.2.2,0,0,1,.06.07.19.19,0,0,1,0,.07s0,.05,0,.07a.43.43,0,0,1,0,.07.2.2,0,0,1-.25,0h0s0,0,0,.06a.19.19,0,0,1,0,.07s0,0,0,.07Z"/>
      <path d="M52.78,6.82l-.08,0-.11,0-.13,0L52.32,7l-.13.07-.12.08L52,7.07A.36.36,0,0,1,52.13,7l.13-.07.13,0,.12,0,.11,0,.07,0-.28-.27.06-.06.35.35Z"/>
      <path d="M53.17,7.14l-.36.36.07.07-.05.06-.07-.07-.13.13-.06-.06.13-.13-.26-.26.05,0h.16l.16,0,.16,0,.14,0Zm-.6.12.18.18L53,7.18l-.14,0-.12,0-.1,0Z"/>
    </g>
    <g>
      <path d="M49.93,4.68l-.09.05a.13.13,0,0,1-.09,0l-.09,0-.09-.07a.3.3,0,0,1-.09-.15l.06-.07a.28.28,0,0,0,.09.17.13.13,0,0,0,.06,0l.05,0h.06l.06,0c.07-.07,0-.16,0-.26l0,0,0-.06,0,0q.14.14.24,0c.06-.06,0-.12,0-.19a.26.26,0,0,0-.15-.07L50,4a.27.27,0,0,1,.15.09s0,0,.06.07a.24.24,0,0,1,0,.08.2.2,0,0,1,0,.07l0,.06a.2.2,0,0,1-.25,0h0a.43.43,0,0,1,0,.07s0,0,0,.06,0,0,0,.07Z"/>
      <path d="M50.72,4.77l-.08,0-.11,0-.13,0-.14.06L50.13,5,50,5.08,50,5l.12-.08.13-.07.13-.05.12,0,.11,0,.07,0-.28-.27.06-.06.35.35Z"/>
      <path d="M50.76,5.52l-.08.05h-.09a.16.16,0,0,1-.09,0l-.09-.06a.33.33,0,0,1-.1-.15l.07-.07a.38.38,0,0,0,.08.17l.06,0,.06,0h.06a.09.09,0,0,0,0,0c.07-.07.06-.16,0-.26l0,0,.06-.05,0,0c.09.09.17.11.23,0a.13.13,0,0,0,0-.2.31.31,0,0,0-.14-.07l.06-.06A.44.44,0,0,1,51,5,.18.18,0,0,1,51,5a.1.1,0,0,1,0,.07.08.08,0,0,1,0,.07.1.1,0,0,1,0,.07.18.18,0,0,1-.24,0h0a.21.21,0,0,1,0,.06.64.64,0,0,0,0,.07.25.25,0,0,1,0,.07A.21.21,0,0,1,50.76,5.52Z"/>
    </g>
    <g>
      <path d="M47.84,2.59a.24.24,0,0,1-.08.06h-.09a.16.16,0,0,1-.09,0,.16.16,0,0,1-.09-.07.26.26,0,0,1-.1-.15l.07-.06a.3.3,0,0,0,.08.16l.06.05.06,0h.06a.1.1,0,0,0,.05,0c.07-.07.06-.15,0-.25l0,0,0,0,.05,0c.09.09.17.1.23,0a.13.13,0,0,0,0-.2A.27.27,0,0,0,47.86,2l.06-.06a.4.4,0,0,1,.15.09.35.35,0,0,1,0,.08.14.14,0,0,1,0,.07.09.09,0,0,1,0,.07l0,.06a.17.17,0,0,1-.25,0h0l0,.07a.15.15,0,0,1,0,.07.13.13,0,0,1,0,.06Z"/>
      <path d="M48.64,2.68l-.09,0-.11,0-.12,0-.14.06-.13.07L47.93,3l-.07-.07L48,2.85l.14-.07.13-.06.12,0,.1,0,.07,0-.27-.28.06-.05.34.34Z"/>
      <path d="M48.86,3.11a.09.09,0,0,0,0,0,.07.07,0,0,0,0-.05.09.09,0,0,0,0,0l0,0,0,0,0,0h-.11l.07-.07.09,0,.1.07,0,.07A.24.24,0,0,1,49,3a.22.22,0,0,1,0,.08l0,.07-.07.05s0,0-.07,0h-.18l-.11,0h-.13l0,0,.27.27-.06.06-.34-.34,0,0s.05,0,.07-.06l.08,0a.14.14,0,0,1,.09,0h.28l.06,0Z"/>
    </g>
    <g>
      <path d="M45.82.58l-.08.05a.13.13,0,0,1-.09,0l-.09,0L45.47.55A.3.3,0,0,1,45.38.4l.06-.07a.28.28,0,0,0,.09.17.1.1,0,0,0,0,0,.07.07,0,0,0,.06,0h.06l.06,0c.07-.07.05-.16,0-.26l0,0,0-.06,0,0q.14.13.24,0a.12.12,0,0,0,0-.19A.21.21,0,0,0,45.84,0l.06-.06a.27.27,0,0,1,.15.09s0,0,.06.07a.25.25,0,0,1,0,.07s0,.05,0,.08l0,.06a.18.18,0,0,1-.24,0h0a.15.15,0,0,1,0,.07.14.14,0,0,1,0,.06.19.19,0,0,1,0,.07S45.84.56,45.82.58Z"/>
      <path d="M46.62.67l-.08,0-.11,0L46.3.77l-.14.06L46,.9,45.91,1,45.85.91,46,.83,46.1.76l.13-.05.12,0,.11,0,.07,0L46.25.34l.06-.06.34.35Z"/>
      <path d="M46.42,1.48l-.06-.06L46.83,1h0l0,0-.05,0,0,0L46.7.83l.06,0,.07,0H47l0,0Z"/>
    </g>
    <g>
      <path d="M60.75,15.45l-.08.05-.09,0-.1,0-.09-.07a.3.3,0,0,1-.09-.15l.07-.07a.23.23,0,0,0,.08.17l.06.05h.12l0,0c.07-.07.06-.15,0-.26l0,0,0-.05,0,0q.14.13.24,0c.06-.06.06-.12,0-.19a.26.26,0,0,0-.15-.07l.06-.06a.29.29,0,0,1,.16.09L61,15a.24.24,0,0,1,0,.08.2.2,0,0,1,0,.07.21.21,0,0,1,0,.06.2.2,0,0,1-.25,0h0a.16.16,0,0,1,0,.07.15.15,0,0,1,0,.07.13.13,0,0,1,0,.06A.21.21,0,0,1,60.75,15.45Z"/>
      <path d="M61.54,15.54l-.08,0-.11,0-.13,0-.13.06-.13.07a.36.36,0,0,0-.12.08l-.07-.07.12-.08.13-.06.13-.06.13,0,.1,0,.07,0-.27-.27,0-.05.35.34Z"/>
      <path d="M61.26,16l.05,0,.06,0h.06l.07,0a.41.41,0,0,1,0-.11.41.41,0,0,1,0-.09l.07,0h.07l.08,0a.18.18,0,0,1,.07.05.12.12,0,0,1,.05.07.12.12,0,0,1,0,.08.17.17,0,0,1,0,.07.16.16,0,0,1,0,.07.2.2,0,0,1-.09,0h-.11a.19.19,0,0,1,0,.07v.07l0,.06,0,.05-.08.05h-.09l-.09,0-.08-.06-.06-.08a.29.29,0,0,1,0-.09.28.28,0,0,1,0-.09A.21.21,0,0,1,61.26,16Zm.07.07a.1.1,0,0,0,0,0,.13.13,0,0,0,0,.06.11.11,0,0,0,0,.05l0,.06.05,0h.11l.06,0,0,0a.07.07,0,0,0,0-.05.07.07,0,0,0,0-.06s0,0,0-.06l0,0h-.12A.1.1,0,0,0,61.33,16Zm.27-.24,0,.05a.06.06,0,0,0,0,0,.07.07,0,0,0,0,0l0,0s0,0,0,0h.1s0,0,0,0l0,0a.09.09,0,0,0,0,0,.11.11,0,0,0,0-.05l0,0,0,0h-.1Z"/>
    </g>
    <g>
      <path d="M85.91,48.14l.1,0a.18.18,0,0,1,.07.05.16.16,0,0,1,0,.09.2.2,0,0,1,0,.11.29.29,0,0,1,0,.17H86a.28.28,0,0,0,.06-.18s0,0,0-.07a.1.1,0,0,0,0,0,.08.08,0,0,0,0,0h-.06c-.11,0-.15.08-.15.22v.06h-.07v-.06c0-.13-.06-.19-.15-.19s-.13,0-.13.15a.24.24,0,0,0,.06.15h-.08a.29.29,0,0,1,0-.17.28.28,0,0,1,0-.09l0-.07.06,0,.07,0a.19.19,0,0,1,.2.15h0a.15.15,0,0,1,0-.07.09.09,0,0,1,0-.06.1.1,0,0,1,0,0Z"/>
      <path d="M85.91,48h-.06l-.06,0-.05,0,0-.06a.27.27,0,0,1-.07.08.17.17,0,0,1-.1,0h-.08l-.06,0a.21.21,0,0,1,0-.06.29.29,0,0,1,0-.09.28.28,0,0,1,0-.09.25.25,0,0,1,0-.07l.06,0,.08,0a.19.19,0,0,1,.1,0,.16.16,0,0,1,.07.07l0-.06,0,0a.09.09,0,0,1,.06,0l.06,0,.09,0a.18.18,0,0,1,.07,0,.22.22,0,0,1,0,.08.16.16,0,0,1,0,.1.34.34,0,0,1,0,.1.35.35,0,0,1-.05.08A.15.15,0,0,1,86,48Zm-.36-.11h0l0,0a.05.05,0,0,0,0,0,.13.13,0,0,0,0-.1l0,0,0,0h-.1s0,0,0,0l0,0a.43.43,0,0,0,0,.05s0,0,0,0l0,0,0,0Zm.35,0,.07,0s0,0,0,0l0,0s0,0,0-.06a.13.13,0,0,0,0-.06l0-.05s0,0-.05,0h-.13l0,0,0,.05a.15.15,0,0,0,0,.07.14.14,0,0,0,0,.06s0,0,0,.05l0,0Z"/>
      <path d="M85.9,47.42h-.07l0,0,0,0a.21.21,0,0,1,0-.06.27.27,0,0,1-.07.08.17.17,0,0,1-.1,0h-.07l-.07,0a.16.16,0,0,1,0-.07.19.19,0,0,1,0-.08.28.28,0,0,1,0-.09l0-.07.06,0a.12.12,0,0,1,.08,0,.16.16,0,0,1,.1,0,.27.27,0,0,1,.07.08l0-.06,0,0,.06,0h.06l.09,0,.08.05a.16.16,0,0,1,0,.07.37.37,0,0,1,0,.21.3.3,0,0,1,0,.08l-.07,0Zm-.37-.11h0l0,0a.08.08,0,0,0,0,0,.09.09,0,0,0,0,0,.07.07,0,0,0,0,0l0,0,0,0s0,0,0,0h0l0,0,0,0s0,0,0,0a.09.09,0,0,0,0,.05.05.05,0,0,0,0,0,.05.05,0,0,0,0,0Zm.35,0,.07,0s0,0,0,0l0-.05s0,0,0-.06a.08.08,0,0,0,0-.06.12.12,0,0,0-.08-.08h-.12l0,0s0,0,0,0a.14.14,0,0,0,0,.07s0,0,0,.06l0,0,0,0Z"/>
    </g>
    <g>
      <path d="M84.75,43.14h-.1a.11.11,0,0,1-.08,0A.23.23,0,0,1,84.5,43a.36.36,0,0,1,0-.11.28.28,0,0,1,0-.18l.09,0a.25.25,0,0,0,0,.19l0,.07a.08.08,0,0,0,0,0l.05,0h.07c.09,0,.13-.11.09-.25v-.06l.07,0v.06c0,.12.09.17.19.15s.11-.08.09-.17a.24.24,0,0,0-.09-.14l.08,0a.42.42,0,0,1,.09.16.27.27,0,0,1,0,.09.14.14,0,0,1,0,.07.09.09,0,0,1,0,.06.09.09,0,0,1-.07,0,.19.19,0,0,1-.23-.1h0V43a.14.14,0,0,1,0,.06l0,0Z"/>
      <path d="M84.77,43.27h.07l.06,0a.09.09,0,0,1,.06,0l0,0a.31.31,0,0,1,0-.1l.09,0h.08a.09.09,0,0,1,.07,0l.06,0a.13.13,0,0,1,0,.08.28.28,0,0,1,0,.09.24.24,0,0,1,0,.08l-.05.06-.07,0h-.11l-.08-.06s0,0,0,.06l0,.06,0,0-.06,0H84.8a.2.2,0,0,1-.08,0,.13.13,0,0,1-.07-.06,1,1,0,0,1,0-.1.17.17,0,0,1,0-.1.19.19,0,0,1,0-.08.2.2,0,0,1,.06-.07A.2.2,0,0,1,84.77,43.27Zm0,.09-.06,0s0,0,0,0,0,0,0,0a.2.2,0,0,0,0,.07.08.08,0,0,0,0,.05l.05,0,0,0s0,0,.07,0,0,0,.05,0l0,0s0,0,0-.05a.17.17,0,0,0,0-.07.14.14,0,0,0,0-.06l0,0H84.8Zm.36-.06,0,0,0,0a.08.08,0,0,0,0,0v.05s0,0,0,0l0,0,0,0h0l0,0,0,0a.07.07,0,0,0,0-.05,0,0,0,0,0,0,0,.05.05,0,0,0,0,0l0,0h-.09Z"/>
      <path d="M85.52,44.2l-.08,0-.11,0-.14,0-.14,0h-.29l0-.09H85l.14,0,.13,0,.1,0,.07,0-.09-.38.08,0,.11.48Z"/>
    </g>
    <g>
      <path d="M83.29,39.39l-.1,0-.09,0-.08,0-.06-.1a.28.28,0,0,1,0-.17L83,39a.23.23,0,0,0,0,.18.09.09,0,0,0,0,.06l.05,0h.12c.09-.05.1-.13,0-.26l0-.06.07,0,0,0c.05.12.12.15.21.11s.09-.1,0-.18a.25.25,0,0,0-.11-.12l.07,0a.41.41,0,0,1,.12.14.29.29,0,0,1,0,.09.09.09,0,0,1,0,.07l0,.07-.06,0a.19.19,0,0,1-.25,0h0s0,0,0,.08,0,0,0,.06a.09.09,0,0,1,0,.06Z"/>
      <path d="M83.34,39.5h.12l.07,0,0,0,0-.1a.27.27,0,0,1,.08-.07l.08,0,.07,0,.07,0a.18.18,0,0,1,0,.07.31.31,0,0,1,0,.08.21.21,0,0,1,0,.08.16.16,0,0,1,0,.07l-.06,0a.2.2,0,0,1-.1,0l-.1,0a.2.2,0,0,1,0,.07.14.14,0,0,1,0,.06l0,.05,0,0-.09,0-.09,0-.08-.05-.06-.08a.44.44,0,0,1,0-.1.14.14,0,0,1,0-.09.2.2,0,0,1,0-.08Zm0,.09-.06,0,0,.05s0,0,0,.06a.13.13,0,0,0,0,.06l0,.05.05,0h.06l.06,0a.09.09,0,0,0,0,0s0,0,0,0a.18.18,0,0,0,0-.12l0,0s0,0,0,0h-.06Zm.33-.14a.08.08,0,0,0,0,0l0,0v0a.11.11,0,0,0,0,.05l0,0,0,0h0l0,0s0,0,0,0l0,0a.43.43,0,0,0,0,0s0,0,0-.05l0,0,0,0h-.1Z"/>
      <path d="M83.84,40.47a.17.17,0,0,1-.1,0h-.09l-.08,0a.21.21,0,0,1-.06-.08.23.23,0,0,1,0-.11.22.22,0,0,1,0-.1.32.32,0,0,1,.08-.09l.12-.08a.64.64,0,0,1,.18-.06H84a.29.29,0,0,1,.13,0,.27.27,0,0,1,.08.1.41.41,0,0,1,0,.12l-.08,0a.31.31,0,0,0,0-.13.13.13,0,0,0-.06-.07A.12.12,0,0,0,84,40h-.11l-.12,0h0a.18.18,0,0,1,.16.11.29.29,0,0,1,0,.09.11.11,0,0,1,0,.08.35.35,0,0,1,0,.08Zm0-.07.06,0,0,0a.13.13,0,0,0,0-.06.14.14,0,0,0,0-.06l0,0,0,0h-.06l-.06,0a.09.09,0,0,0-.06,0l0,.05a.14.14,0,0,0,0,.07.13.13,0,0,0,0,.06l0,0,0,0h.07Z"/>
    </g>
    <g>
      <path d="M81.1,36,81,36h-.1l-.09,0a.3.3,0,0,1-.08-.08.28.28,0,0,1-.07-.16l.07-.06a.28.28,0,0,0,.06.18l.06.05.06,0h0l.06,0c.08-.06.08-.15,0-.26l0,0,.06,0,0,0c.08.1.16.12.23.06a.12.12,0,0,0,0-.19.26.26,0,0,0-.14-.09l.07,0a.36.36,0,0,1,.14.11.2.2,0,0,1,0,.08.09.09,0,0,1,0,.07.08.08,0,0,1,0,.07l0,.06a.2.2,0,0,1-.25,0h0a.14.14,0,0,1,0,.07.17.17,0,0,1,0,.07.14.14,0,0,1,0,.06Z"/>
      <path d="M81.18,36.09l0,0h.13s0,0,.07,0a.2.2,0,0,1,0-.11.24.24,0,0,1,.06-.08l.07,0h.08a.13.13,0,0,1,.08,0,.17.17,0,0,1,.06.06.25.25,0,0,1,0,.07.28.28,0,0,1,0,.09.25.25,0,0,1,0,.07l0,.06a.17.17,0,0,1-.1,0,.17.17,0,0,1-.1,0,.15.15,0,0,1,0,.07s0,0,0,.06l0,.06,0,0-.09.05h-.09l-.08,0-.08-.07a.41.41,0,0,1-.05-.09.28.28,0,0,1,0-.09.16.16,0,0,1,0-.09A.13.13,0,0,1,81.18,36.09Zm.06.07,0,.05s0,0,0,0v.06l0,.06a.08.08,0,0,0,0,0l.06,0h.06s0,0,.05,0a.08.08,0,0,0,0,0,.07.07,0,0,0,0-.06.06.06,0,0,0,0-.06.05.05,0,0,0,0-.05.12.12,0,0,0,0,0h0s0,0-.06,0Zm.3-.2,0,0s0,0,0,0a.11.11,0,0,0,0,.05l0,0,0,0h.09l0,0,0,0a.08.08,0,0,0,0,0,.09.09,0,0,0,0,0s0,0,0-.05l0,0-.05,0h0Z"/>
      <path d="M81.85,36.92l-.09,0h-.1l-.09,0a.32.32,0,0,1-.09-.08.37.37,0,0,1-.07-.14l.08-.06a.23.23,0,0,0,.06.16l0,0,.06,0h.07l.06,0a.14.14,0,0,0,.06-.11.24.24,0,0,0-.06-.15l0,0,0,0,0,0,0,0,.32-.22.22.28-.06,0L82,36.39l-.18.12,0,0,0,0a.21.21,0,0,1,.06.1.28.28,0,0,1,0,.09.11.11,0,0,1,0,.08A.21.21,0,0,1,81.85,36.92Z"/>
    </g>
    <g>
      <path d="M78.28,33.05l-.08.05h-.09l-.1,0L77.92,33a.29.29,0,0,1-.09-.16l.07-.06A.25.25,0,0,0,78,33L78,33l.06,0h.06l0,0c.07-.07.06-.16,0-.26l0,0,0,0,0,0c.09.09.17.11.24,0a.13.13,0,0,0,0-.2.26.26,0,0,0-.15-.07l.06-.06a.39.39,0,0,1,.16.1.18.18,0,0,1,0,.07.19.19,0,0,1,0,.07.15.15,0,0,1,0,.07.16.16,0,0,1,0,.07.2.2,0,0,1-.25,0h0l0,.06a.17.17,0,0,1,0,.07.2.2,0,0,1,0,.07A.21.21,0,0,1,78.28,33.05Z"/>
      <path d="M78.37,33.14a.1.1,0,0,1,0,0l.06,0h.06l.07,0a.2.2,0,0,1,0-.11.18.18,0,0,1,0-.09l.07,0a.11.11,0,0,1,.08,0h.07l.08,0L79,33s0,0,0,.07a.19.19,0,0,1,0,.08.25.25,0,0,1,0,.07.18.18,0,0,1-.09,0h-.11a.14.14,0,0,1,0,.07v.06s0,0,0,.06l0,.05a.14.14,0,0,1-.08,0,.12.12,0,0,1-.08,0l-.09,0-.09-.06-.06-.09a.31.31,0,0,1,0-.08.15.15,0,0,1,0-.09A.14.14,0,0,1,78.37,33.14Zm.07.06a.21.21,0,0,0,0,.06.07.07,0,0,0,0,.05.13.13,0,0,0,0,.06l0,.05,0,0h.12l0,0a.09.09,0,0,0,0-.05.14.14,0,0,0,0-.06s0,0,0-.06l0,0s0,0,0,0l-.06,0-.06,0S78.46,33.18,78.44,33.2Zm.27-.23,0,0s0,0,0,.05,0,0,0,0l0,0,0,0h.1l0,0a.05.05,0,0,0,0,0,.11.11,0,0,0,0,0,.09.09,0,0,0,0-.05s0,0,0,0,0,0,0,0h-.1Z"/>
      <path d="M79.47,33.45l-.36.36.07.07-.06.06-.07-.07-.13.13-.06-.06.13-.13-.26-.26.06,0H79l.16,0,.15,0,.14,0Zm-.61.12.19.18.26-.26-.14,0-.12,0-.1,0Z"/>
    </g>
    <g>
      <path d="M75.39,30.15a.16.16,0,0,1-.08.06h-.09a.16.16,0,0,1-.09,0,.15.15,0,0,1-.09-.06.32.32,0,0,1-.1-.16l.07-.06a.3.3,0,0,0,.08.17l.06,0,.06,0h.06l0,0c.07-.07.06-.16,0-.26l0-.05,0-.05,0,0c.09.09.16.1.23,0a.13.13,0,0,0,0-.2.26.26,0,0,0-.15-.07l.06-.06a.39.39,0,0,1,.16.1.18.18,0,0,1,0,.07.19.19,0,0,1,0,.07.15.15,0,0,1,0,.07.16.16,0,0,1,0,.07.19.19,0,0,1-.25,0h0l0,.06a.17.17,0,0,1,0,.07.2.2,0,0,1,0,.07A.1.1,0,0,1,75.39,30.15Z"/>
      <path d="M75.48,30.25a.1.1,0,0,1,0,0l.06,0a.16.16,0,0,1,.07,0l.06,0a.2.2,0,0,1,0-.11.11.11,0,0,1,0-.09s0,0,.06,0l.08,0L76,30l.07.05a.35.35,0,0,1,0,.08.19.19,0,0,1,0,.07.24.24,0,0,1,0,.08.14.14,0,0,1-.13.11.17.17,0,0,1-.1,0,.15.15,0,0,1,0,.07s0,0,0,.06a.14.14,0,0,1,0,.06.1.1,0,0,1,0,.05l-.08,0-.08,0-.09,0-.08-.06a.24.24,0,0,1-.06-.09.32.32,0,0,1,0-.09.19.19,0,0,1,0-.08A.22.22,0,0,1,75.48,30.25Zm.07.06,0,.05s0,0,0,.06,0,0,0,.06l0,.05,0,0h.12l0,0,0-.05s0,0,0-.06a.13.13,0,0,0,0-.06l0-.05a.1.1,0,0,0,0,0h-.11Zm.27-.23a.05.05,0,0,0,0,0,.13.13,0,0,0,0,.1.08.08,0,0,0,0,0l.05,0H76l0,0a.05.05,0,0,0,0-.05.06.06,0,0,0,0,0,.07.07,0,0,0,0-.05.05.05,0,0,0,0,0s0,0-.05,0h-.09Z"/>
      <path d="M76.23,31l-.08.06h-.09a.17.17,0,0,1-.1,0L75.87,31a.3.3,0,0,1-.09-.15l.07-.07a.21.21,0,0,0,.08.17L76,31l.06,0h.06l0,0c.07-.07,0-.15,0-.25l0-.05.05-.05,0,0q.14.14.24,0c.06-.06.06-.12,0-.19a.26.26,0,0,0-.15-.07l.06-.06a.37.37,0,0,1,.16.09l.05.07a.24.24,0,0,1,0,.08.17.17,0,0,1,0,.07l0,.06a.2.2,0,0,1-.25,0h0l0,.07a.15.15,0,0,1,0,.07.13.13,0,0,1,0,.06Z"/>
    </g>
    <g>
      <path d="M72.48,27.24l-.09.05H72.3a.16.16,0,0,1-.09,0l-.09-.06a.3.3,0,0,1-.09-.15l.06-.07a.28.28,0,0,0,.09.17l0,0,.07,0h0s0,0,.06,0,0-.16,0-.26l0,0,.05-.06,0,.05q.14.14.24,0c.06-.06,0-.13,0-.2a.25.25,0,0,0-.15-.06l.06-.06a.24.24,0,0,1,.15.09.2.2,0,0,1,.06.07.19.19,0,0,1,0,.07.15.15,0,0,1,0,.07.18.18,0,0,1,0,.07.18.18,0,0,1-.24,0h0s0,0,0,.06a.25.25,0,0,1,0,.07s0,.05,0,.07Z"/>
      <path d="M72.56,27.33l0,0,.07,0h.06l.07,0a.41.41,0,0,1,0-.11.41.41,0,0,1,0-.09l.07,0A.09.09,0,0,1,73,27a.11.11,0,0,1,.08,0,.12.12,0,0,1,.07.05.18.18,0,0,1,0,.07.19.19,0,0,1,0,.08.17.17,0,0,1,0,.07.16.16,0,0,1,0,.07l-.09.05H73a.14.14,0,0,1,0,.07.13.13,0,0,1,0,.06.14.14,0,0,1,0,.06l0,.05-.08.06h-.09l-.09,0-.08-.06a.24.24,0,0,1-.06-.09.19.19,0,0,1,0-.08.28.28,0,0,1,0-.09A.22.22,0,0,1,72.56,27.33Zm.08.06,0,.06a.09.09,0,0,0,0,.05.13.13,0,0,0,0,.06.29.29,0,0,0,.09.09h.11l.06,0,0-.05a.13.13,0,0,0,0-.06.09.09,0,0,0,0-.05s0,0,0-.06l0,0-.06,0-.06,0A.09.09,0,0,0,72.64,27.39Zm.27-.23,0,0a.13.13,0,0,0,0,.1l0,0,0,0h.1l0,0,0,0a.43.43,0,0,1,0-.05.09.09,0,0,0,0-.05l0,0,0,0H73Z"/>
      <path d="M73.49,27.76l0-.05a.43.43,0,0,1,0-.05.14.14,0,0,0,0-.06s0,0,0,0l0,0,0,0h-.05s0,0-.06,0l.07-.07.1,0a.24.24,0,0,1,.09.06.35.35,0,0,1,0,.08.19.19,0,0,1,0,.07.11.11,0,0,1,0,.08.35.35,0,0,1,0,.08l-.07.05-.07,0h-.18l-.11,0H73l0,0,.27.27-.06,0-.33-.33,0,0,.06-.05.08,0h.09l.13,0h.16l0,0Z"/>
    </g>
    <g>
      <path d="M69.62,24.39a.14.14,0,0,1-.08.05.15.15,0,0,1-.09,0l-.09,0-.09-.07a.3.3,0,0,1-.09-.15l.06-.07a.26.26,0,0,0,.09.17l0,.05.06,0h.06l.06,0c.07-.07,0-.15,0-.25l0,0,0-.05,0,0c.09.09.17.1.23,0s.06-.12,0-.19a.26.26,0,0,0-.15-.07l.06-.06a.27.27,0,0,1,.15.09s0,.05.06.07,0,.05,0,.08a.17.17,0,0,1,0,.07l0,.06a.18.18,0,0,1-.24,0h0l0,.07a.14.14,0,0,1,0,.07s0,0,0,.06Z"/>
      <path d="M69.71,24.49l.05,0,.06,0h.07l.07,0a.34.34,0,0,1,0-.1.13.13,0,0,1,0-.09.18.18,0,0,1,.07-.05h.07l.08,0a.18.18,0,0,1,.07.05l0,.07a.24.24,0,0,1,0,.08.22.22,0,0,1,0,.08l0,.06a.14.14,0,0,1-.08.05.21.21,0,0,1-.11,0,.25.25,0,0,1,0,.07.17.17,0,0,1,0,.07.14.14,0,0,1,0,.06l0,.05-.08.05a.14.14,0,0,1-.09,0,.15.15,0,0,1-.09,0,.21.21,0,0,1-.08-.06.16.16,0,0,1-.06-.08.29.29,0,0,1,0-.09.28.28,0,0,1,0-.09A.18.18,0,0,1,69.71,24.49Zm.08.06a.1.1,0,0,0,0,.05.18.18,0,0,0,0,.12l0,.05a.09.09,0,0,0,0,0l0,0,.06,0,.06,0,0-.05a.18.18,0,0,0,0-.12.09.09,0,0,0,0-.05l-.06,0h-.11A.1.1,0,0,0,69.79,24.55Zm.27-.24,0,.05a.07.07,0,0,0,0,.05.06.06,0,0,0,0,0,.13.13,0,0,0,0,.05.05.05,0,0,0,0,0h.1a.05.05,0,0,0,0,0l0,0a.43.43,0,0,0,0-.05s0,0,0,0l0-.05,0,0h0l-.05,0Z"/>
      <path d="M70.22,25.3l-.06-.07.47-.47h-.09l-.05,0,0,0,.06-.06.06,0,.07,0,.06,0h.06l0,0Z"/>
    </g>
    <g>
      <path d="M66.66,21.42l-.08,0h-.1a.16.16,0,0,1-.09,0,.24.24,0,0,1-.09-.06.33.33,0,0,1-.09-.16l.06-.06a.32.32,0,0,0,.09.17l.06,0,.06,0h0l.06,0c.07-.07,0-.16,0-.26l0-.05,0-.05,0,0c.09.09.17.1.24,0s0-.13,0-.2a.26.26,0,0,0-.15-.07l.06-.06a.31.31,0,0,1,.15.1.13.13,0,0,1,.06.07A.19.19,0,0,1,67,21a.15.15,0,0,1,0,.07.16.16,0,0,1,0,.07.2.2,0,0,1-.25,0h0l0,.06s0,.05,0,.07,0,0,0,.07Z"/>
      <path d="M66.75,21.51a.1.1,0,0,1,0,0l.06,0h.06l.07,0a.45.45,0,0,1,0-.11.41.41,0,0,1,0-.09l.07,0,.07,0,.08,0,.07.05a.35.35,0,0,1,.05.08.19.19,0,0,1,0,.07.22.22,0,0,1,0,.08.25.25,0,0,1,0,.07.18.18,0,0,1-.09,0h-.11a.14.14,0,0,1,0,.06v.07l0,.06,0,.05a.18.18,0,0,1-.08.05.15.15,0,0,1-.09,0l-.09,0-.08-.06-.06-.09a.29.29,0,0,1,0-.09.22.22,0,0,1,0-.08A.16.16,0,0,1,66.75,21.51Zm.07.06a.21.21,0,0,0,0,.06.07.07,0,0,0,0,.05.13.13,0,0,0,0,.06l0,.05a.1.1,0,0,0,.05,0H67l.06,0,0-.05a.13.13,0,0,0,0-.06.07.07,0,0,0,0-.06s0,0,0-.05l-.05,0h-.12Zm.27-.23,0,0a.13.13,0,0,0,0,.1l0,0,0,0h.1l0,0,0-.05a.06.06,0,0,0,0,0,.07.07,0,0,0,0-.05l0,0a.05.05,0,0,0,0,0h-.1Z"/>
      <path d="M67.64,22.16l-.13.11-.13.05h-.11a.21.21,0,0,1-.1-.06.41.41,0,0,1,0-.09.21.21,0,0,1,0-.11.21.21,0,0,1,0-.12.53.53,0,0,1,.1-.12.75.75,0,0,1,.14-.12.35.35,0,0,1,.13-.05h.11a.27.27,0,0,1,.1.06C67.86,21.82,67.82,22,67.64,22.16Zm-.07-.06c.15-.15.19-.27.12-.34s-.19,0-.35.12-.18.26-.11.33S67.42,22.25,67.57,22.1Z"/>
    </g>
    <g>
      <path d="M63.75,18.51a.14.14,0,0,1-.08,0l-.09,0-.09,0-.09-.07a.33.33,0,0,1-.1-.15l.07-.07a.3.3,0,0,0,.08.17l.06.05.06,0h.06a.1.1,0,0,0,0,0c.07-.07.06-.15,0-.26l0,0,.06,0,0,0c.09.09.17.1.23,0s.06-.12,0-.19a.23.23,0,0,0-.14-.07l.06-.06a.3.3,0,0,1,.15.09L64,18a.12.12,0,0,1,0,.08.09.09,0,0,1,0,.07l0,.06a.18.18,0,0,1-.24,0h0a.16.16,0,0,1,0,.07.15.15,0,0,1,0,.07.13.13,0,0,1,0,.06A.21.21,0,0,1,63.75,18.51Z"/>
      <path d="M64.55,18.6l-.09,0-.11,0-.12,0-.14.06-.13.07-.12.08-.06-.07a.62.62,0,0,1,.12-.08L64,18.7l.13-.06.12,0,.1,0,.07,0-.27-.27.06-.05.34.34Z"/>
      <path d="M64.76,19.22l-.15.12-.14.05a.19.19,0,0,1-.13,0,.25.25,0,0,1-.12-.07.34.34,0,0,1-.07-.11l.06-.06a.25.25,0,0,0,.07.12l.08,0a.14.14,0,0,0,.09,0,.25.25,0,0,0,.11,0l.1-.08h0a.16.16,0,0,1-.19-.05.18.18,0,0,1,0-.07.29.29,0,0,1,0-.09.19.19,0,0,1,0-.08l.06-.08.09-.07.09,0,.09,0a.24.24,0,0,1,.09.06.41.41,0,0,1,0,.09.16.16,0,0,1,0,.1.34.34,0,0,1-.05.11A.47.47,0,0,1,64.76,19.22Zm0-.13,0-.06a.19.19,0,0,0,0-.07.13.13,0,0,0,0-.06.05.05,0,0,0,0,0l0,0h-.06l-.06,0-.06,0a.21.21,0,0,0,0,.06.14.14,0,0,0,0,.06s0,0,0,.06a.29.29,0,0,0,.09.09h.11Z"/>
    </g>
    <g>
      <path d="M85.94,52.26l.09,0,.08,0a.36.36,0,0,1,0,.09.36.36,0,0,1,0,.11.29.29,0,0,1,0,.17H86a.27.27,0,0,0,.06-.17.22.22,0,0,0,0-.08.05.05,0,0,0,0-.05.08.08,0,0,0,0,0H86q-.15,0-.15.21v.07h-.08v-.06c0-.13,0-.19-.14-.19s-.13,0-.13.14a.25.25,0,0,0,0,.15h-.08a.29.29,0,0,1,0-.17.29.29,0,0,1,0-.09s0,0,0-.06a.12.12,0,0,1,0-.05h.08a.18.18,0,0,1,.19.15h0a.64.64,0,0,1,0-.07l0-.06.06,0Z"/>
      <path d="M85.94,52.13h-.06l-.06,0,0,0,0-.06a.27.27,0,0,1-.07.08.17.17,0,0,1-.1,0l-.08,0-.06,0s0,0,0-.06a.21.21,0,0,1,0-.18s0,0,0-.06l.06,0,.08,0a.17.17,0,0,1,.1,0,.27.27,0,0,1,.07.08l0-.06,0,0,.06,0h.06l.09,0,.08.05a.2.2,0,0,1,0,.08.26.26,0,0,1,0,.2.2.2,0,0,1,0,.08l-.08,0ZM85.58,52h0l0,0,0,0s0,0,0,0,0,0,0-.05l0,0,0,0h-.1l0,0s0,0,0,0a.09.09,0,0,0,0,.05.07.07,0,0,0,0,0s0,0,0,0l0,0Zm.35,0H86s0,0,0,0l0-.05a.18.18,0,0,0,0-.12l0,0s0,0,0,0l-.07,0-.06,0s0,0-.05,0l0,0s0,0,0,.06a.13.13,0,0,0,0,.06l0,.05.05,0Z"/>
      <path d="M85.73,51.05a.5.5,0,0,1,.18,0,.3.3,0,0,1,.14.06.28.28,0,0,1,.09.1.28.28,0,0,1,0,.13.25.25,0,0,1,0,.13h-.08a.28.28,0,0,0,0-.13.16.16,0,0,0,0-.1A.12.12,0,0,0,86,51.2a.31.31,0,0,0-.1-.05h-.14a.17.17,0,0,1,.1.17.29.29,0,0,1,0,.09.26.26,0,0,1-.12.12l-.1,0-.1,0-.08-.05-.06-.08a.36.36,0,0,1,0-.1.17.17,0,0,1,0-.1.18.18,0,0,1,.07-.08.28.28,0,0,1,.11,0Zm-.08.09h-.08l-.07,0,0,0a.15.15,0,0,0,0,.07.13.13,0,0,0,0,.06l0,0a.05.05,0,0,0,0,0l.07,0,.07,0a.09.09,0,0,0,.06,0l0,0s0,0,0-.06a.13.13,0,0,0,0-.06l0,0a.1.1,0,0,0,0,0Z"/>
    </g>
    <path d="M85.73,63.18l.17,0,.13,0a.18.18,0,0,1,.07.08.23.23,0,0,1,0,.11.2.2,0,0,1,0,.11.16.16,0,0,1-.07.07.33.33,0,0,1-.12.05l-.16,0-.18,0-.13-.05a.2.2,0,0,1-.08-.08.2.2,0,0,1,0-.11C85.33,63.27,85.47,63.18,85.73,63.18Zm0,.09c-.22,0-.33.06-.33.16s.11.17.33.17.31-.06.31-.17S86,63.27,85.74,63.27Z"/>
    <g>
      <path d="M90.22,52.18v.1l-.21.09v.32l.21.08v.1l-.77-.3v-.09Zm-.29.21-.33.13h0l.33.12Z"/>
      <path d="M89.83,51.62l.17,0,.13,0a.3.3,0,0,1,.08.08.22.22,0,0,1,0,.11.2.2,0,0,1,0,.11.19.19,0,0,1-.08.07l-.11,0-.17,0-.18,0-.13,0a.18.18,0,0,1-.07-.08.2.2,0,0,1,0-.11C89.44,51.71,89.57,51.62,89.83,51.62Zm0,.09c-.22,0-.33.06-.33.16s.12.17.34.17.31-.06.31-.17S90.05,51.71,89.84,51.71Z"/>
      <path d="M89.65,51.17h-.06s0,0,0,0l0,0s0,0,0,.06a.43.43,0,0,1,0,0s0,0,0,0l0,0,0,0h-.1a.22.22,0,0,1-.05-.08.36.36,0,0,1,0-.11.25.25,0,0,1,0-.09.43.43,0,0,1,0-.07.18.18,0,0,1,.07,0h.17a.11.11,0,0,1,.07,0l.06.05.06.08.07.09s0,0,.05,0,0,0,0,0h0v-.38h.08v.47H90.1l-.07,0a.13.13,0,0,1-.07-.06l-.08-.1-.06-.07a.1.1,0,0,0,0,0l-.06,0Z"/>
    </g>
  </g>
  <g id="Station_Numbers" data-name="Station Numbers">
    <g>
      <path d="M64,12.45l-.07-.08.1-.21-.23-.23-.21.1L63.53,12l.75-.33.07.06Zm.06-.36.15-.32,0,0h0l0,0-.31.15Z"/>
      <path d="M64.68,12.57l-.13.11-.12.05h-.12l-.09-.06a.24.24,0,0,1-.06-.09.21.21,0,0,1,0-.11.61.61,0,0,1,0-.12.6.6,0,0,1,.11-.12.71.71,0,0,1,.13-.12.27.27,0,0,1,.13,0h.11a.21.21,0,0,1,.1.06C64.9,12.23,64.87,12.38,64.68,12.57Zm-.07-.06c.16-.16.2-.27.13-.34s-.2,0-.36.12-.18.25-.1.33S64.46,12.66,64.61,12.51Z"/>
      <path d="M65,13.08l-.08.05-.09,0-.1,0-.09-.07a.3.3,0,0,1-.09-.15l.06-.07a.28.28,0,0,0,.09.17l.06.05h.11l.06,0c.07-.07,0-.15,0-.26l0,0,0-.05,0,0q.14.13.24,0c.06-.06.06-.12,0-.19a.26.26,0,0,0-.15-.07l.06-.06a.29.29,0,0,1,.16.09l0,.07a.24.24,0,0,1,0,.08.2.2,0,0,1,0,.07l0,.06a.2.2,0,0,1-.25,0h0a.43.43,0,0,1,0,.07s0,0,0,.06A.15.15,0,0,1,65,13Z"/>
    </g>
  </g>
  <g id="Station_Names" data-name="Station Names">
    <g>
      <path class="cls-2" d="M2.62,13.46H4.8a4,4,0,0,1,1.12.12,1.9,1.9,0,0,1,.89.54,2.56,2.56,0,0,1,.57,1,4.57,4.57,0,0,1,.19,1.39,3.88,3.88,0,0,1-.18,1.25,2.73,2.73,0,0,1-.63,1.05,2.25,2.25,0,0,1-.84.47,3.77,3.77,0,0,1-1.06.12H2.62Zm1.19,1v3.91H4.7a3,3,0,0,0,.72-.06,1.09,1.09,0,0,0,.48-.24,1.28,1.28,0,0,0,.32-.57,3.92,3.92,0,0,0,.12-1.08,3.51,3.51,0,0,0-.12-1.05,1.31,1.31,0,0,0-.34-.57,1.15,1.15,0,0,0-.55-.28,5.1,5.1,0,0,0-1-.06Z"/>
      <path class="cls-2" d="M11.38,19.36v-.64a1.59,1.59,0,0,1-.61.54,1.72,1.72,0,0,1-.8.2,1.55,1.55,0,0,1-.78-.19,1.14,1.14,0,0,1-.49-.53,2.42,2.42,0,0,1-.15-.95v-2.7H9.68v2a5.77,5.77,0,0,0,.06,1.11.62.62,0,0,0,.23.32.69.69,0,0,0,.41.12.91.91,0,0,0,.52-.16.82.82,0,0,0,.32-.4,5,5,0,0,0,.08-1.15v-1.8h1.13v4.27Z"/>
      <path class="cls-2" d="M13.57,15.09h1.06v.63A1.54,1.54,0,0,1,16,15a1.64,1.64,0,0,1,1.26.59,2.34,2.34,0,0,1,.52,1.62,2.49,2.49,0,0,1-.52,1.67,1.65,1.65,0,0,1-1.27.59,1.47,1.47,0,0,1-.64-.14,2.45,2.45,0,0,1-.61-.48V21H13.57Zm1.12,2.06A1.61,1.61,0,0,0,15,18.22a.86.86,0,0,0,.69.34.83.83,0,0,0,.66-.31,1.69,1.69,0,0,0,.26-1,1.55,1.55,0,0,0-.27-1,.82.82,0,0,0-.67-.32.86.86,0,0,0-.69.32A1.42,1.42,0,0,0,14.69,17.15Z"/>
      <path class="cls-2" d="M18.38,17.17a2.34,2.34,0,0,1,.27-1.09,1.93,1.93,0,0,1,.79-.81A2.4,2.4,0,0,1,20.58,15a2.12,2.12,0,0,1,1.58.63,2.15,2.15,0,0,1,.62,1.59,2.18,2.18,0,0,1-.62,1.61,2.1,2.1,0,0,1-1.58.64,2.46,2.46,0,0,1-1.12-.27,1.8,1.8,0,0,1-.81-.78A2.61,2.61,0,0,1,18.38,17.17Zm1.15.06a1.38,1.38,0,0,0,.31,1,1,1,0,0,0,.74.34,1,1,0,0,0,.74-.34,1.44,1.44,0,0,0,.3-1,1.43,1.43,0,0,0-.3-1,1,1,0,0,0-.74-.34,1,1,0,0,0-.74.34A1.39,1.39,0,0,0,19.53,17.23Z"/>
      <path class="cls-2" d="M27.56,19.36H26.43V17.18a3.12,3.12,0,0,0-.08-.89.63.63,0,0,0-.23-.32.71.71,0,0,0-.39-.11.88.88,0,0,0-.53.16.81.81,0,0,0-.32.43,3.49,3.49,0,0,0-.09,1v1.93H23.66V15.09h1.05v.63A1.69,1.69,0,0,1,26.12,15a1.65,1.65,0,0,1,.68.14,1.08,1.08,0,0,1,.47.34,1.17,1.17,0,0,1,.22.48,3,3,0,0,1,.07.76Z"/>
      <path class="cls-2" d="M30.66,15.09V16h-.77v1.72a5.57,5.57,0,0,0,0,.61.31.31,0,0,0,.1.15.38.38,0,0,0,.19.05,1.29,1.29,0,0,0,.46-.11l.09.88a2.28,2.28,0,0,1-.89.17,1.58,1.58,0,0,1-.55-.1.86.86,0,0,1-.36-.27,1,1,0,0,1-.16-.44,6.65,6.65,0,0,1,0-.8V16h-.52v-.9h.52v-.85l1.13-.66v1.51Z"/>
      <path class="cls-2" d="M37.52,17.19l1.15.37A2.55,2.55,0,0,1,37.79,19a2.47,2.47,0,0,1-1.57.47,2.53,2.53,0,0,1-1.93-.8,3.1,3.1,0,0,1-.76-2.19,3.2,3.2,0,0,1,.77-2.29,2.6,2.6,0,0,1,2-.82,2.47,2.47,0,0,1,1.76.64,2.44,2.44,0,0,1,.61,1.09l-1.18.28a1.24,1.24,0,0,0-1.25-1,1.35,1.35,0,0,0-1.06.47,2.33,2.33,0,0,0-.41,1.53,2.53,2.53,0,0,0,.4,1.59,1.3,1.3,0,0,0,1.05.47,1.2,1.2,0,0,0,.82-.3A1.78,1.78,0,0,0,37.52,17.19Z"/>
      <path class="cls-2" d="M39.69,14.51v-1h1.13v1Zm0,4.85V15.09h1.13v4.27Z"/>
      <path class="cls-2" d="M43.06,19.36H41.93V15.09h1v.61a1.84,1.84,0,0,1,.48-.57A.93.93,0,0,1,44,15a1.33,1.33,0,0,1,.74.22l-.35,1a1,1,0,0,0-.53-.18.62.62,0,0,0-.4.13.83.83,0,0,0-.26.47A7.08,7.08,0,0,0,43.06,18Z"/>
      <path class="cls-2" d="M48.91,16.35l-1.12.2a.77.77,0,0,0-.25-.5.81.81,0,0,0-.52-.17.84.84,0,0,0-.67.29,1.49,1.49,0,0,0-.26,1,1.71,1.71,0,0,0,.26,1.07.85.85,0,0,0,.69.32.71.71,0,0,0,.52-.19,1,1,0,0,0,.29-.63l1.11.19a1.94,1.94,0,0,1-.66,1.16,2.07,2.07,0,0,1-1.32.39,2,2,0,0,1-1.49-.59,2.31,2.31,0,0,1-.56-1.64,2.32,2.32,0,0,1,.56-1.65A2,2,0,0,1,47,15a2.06,2.06,0,0,1,1.25.34A1.9,1.9,0,0,1,48.91,16.35Z"/>
      <path class="cls-2" d="M49.76,19.36v-5.9h1.13v5.9Z"/>
      <path class="cls-2" d="M54.53,18l1.12.19a1.8,1.8,0,0,1-.68.94,2,2,0,0,1-1.17.33,1.89,1.89,0,0,1-1.65-.73,2.39,2.39,0,0,1-.43-1.47,2.39,2.39,0,0,1,.56-1.67,1.83,1.83,0,0,1,1.4-.6,1.9,1.9,0,0,1,1.51.63,2.82,2.82,0,0,1,.52,1.93H52.88a1.1,1.1,0,0,0,.28.78.83.83,0,0,0,.65.28.66.66,0,0,0,.44-.14A.9.9,0,0,0,54.53,18Zm.06-1.14a1.11,1.11,0,0,0-.25-.75.82.82,0,0,0-1.2,0,1.05,1.05,0,0,0-.24.73Z"/>
    </g>
    <g>
      <path class="cls-2" d="M23.56,54V48.09h4v1H24.75v1.4h2.46v1H24.75V54Z"/>
      <path class="cls-2" d="M29.42,51l-1-.19a1.66,1.66,0,0,1,.6-.92,2.16,2.16,0,0,1,1.25-.29,2.91,2.91,0,0,1,1.13.17,1.13,1.13,0,0,1,.52.46,2.32,2.32,0,0,1,.15,1v1.32a5.32,5.32,0,0,0,0,.83,2.49,2.49,0,0,0,.21.57H31.17a2.48,2.48,0,0,1-.11-.33,1.11,1.11,0,0,0,0-.13,1.89,1.89,0,0,1-.62.42,1.82,1.82,0,0,1-.7.14,1.45,1.45,0,0,1-1-.36,1.17,1.17,0,0,1-.38-.9,1.19,1.19,0,0,1,.17-.65,1.11,1.11,0,0,1,.48-.43,4.09,4.09,0,0,1,.9-.27,6.9,6.9,0,0,0,1.1-.27v-.12a.57.57,0,0,0-.16-.46,1,1,0,0,0-.61-.14.82.82,0,0,0-.47.12A.85.85,0,0,0,29.42,51Zm1.51.91a6.27,6.27,0,0,1-.69.18,2,2,0,0,0-.61.19.47.47,0,0,0-.22.4.57.57,0,0,0,.17.41.6.6,0,0,0,.45.17,1,1,0,0,0,.59-.2.76.76,0,0,0,.27-.37,2.28,2.28,0,0,0,0-.55Z"/>
      <path class="cls-2" d="M34.24,54H33.11V49.71h1v.61a1.84,1.84,0,0,1,.48-.57.92.92,0,0,1,.49-.13,1.47,1.47,0,0,1,.75.21l-.35,1a1,1,0,0,0-.53-.18.63.63,0,0,0-.41.13.94.94,0,0,0-.26.47,7.08,7.08,0,0,0-.09,1.43Z"/>
      <path class="cls-2" d="M37.45,54H36.31V49.71h1v.61a1.84,1.84,0,0,1,.49-.57.9.9,0,0,1,.49-.13,1.43,1.43,0,0,1,.74.21l-.35,1a1,1,0,0,0-.53-.18.6.6,0,0,0-.4.13.87.87,0,0,0-.26.47,7.08,7.08,0,0,0-.09,1.43Z"/>
      <path class="cls-2" d="M40.41,51l-1-.19a1.6,1.6,0,0,1,.59-.92,2.2,2.2,0,0,1,1.26-.29,2.94,2.94,0,0,1,1.13.17,1.19,1.19,0,0,1,.52.46,2.32,2.32,0,0,1,.15,1v1.32a4.31,4.31,0,0,0,0,.83,2.44,2.44,0,0,0,.2.57H42.16a2.82,2.82,0,0,1-.1-.33,1.28,1.28,0,0,1,0-.13,2,2,0,0,1-.62.42,1.87,1.87,0,0,1-.71.14,1.46,1.46,0,0,1-1-.36,1.26,1.26,0,0,1-.2-1.55,1.06,1.06,0,0,1,.48-.43,4.09,4.09,0,0,1,.9-.27,7.2,7.2,0,0,0,1.1-.27v-.12a.61.61,0,0,0-.16-.46,1,1,0,0,0-.61-.14.8.8,0,0,0-.47.12A.86.86,0,0,0,40.41,51Zm1.52.91q-.23.07-.69.18a2.17,2.17,0,0,0-.62.19.5.5,0,0,0-.22.4.54.54,0,0,0,.18.41.6.6,0,0,0,.45.17.93.93,0,0,0,.58-.2.65.65,0,0,0,.27-.37,2.14,2.14,0,0,0,0-.55Z"/>
      <path class="cls-2" d="M44.05,54.27l1.29.15a.42.42,0,0,0,.15.31.82.82,0,0,0,.5.12,1.32,1.32,0,0,0,.67-.13.53.53,0,0,0,.22-.28,1.55,1.55,0,0,0,.06-.52v-.63a1.54,1.54,0,0,1-1.28.69,1.59,1.59,0,0,1-1.37-.72,2.52,2.52,0,0,1-.39-1.44,2.34,2.34,0,0,1,.52-1.64,1.64,1.64,0,0,1,1.28-.56,1.57,1.57,0,0,1,1.31.69v-.6h1.06v3.84a3.59,3.59,0,0,1-.13,1.13,1.33,1.33,0,0,1-.35.58,1.45,1.45,0,0,1-.6.34,3.19,3.19,0,0,1-1,.12,2.5,2.5,0,0,1-1.54-.37,1.2,1.2,0,0,1-.46-1A.66.66,0,0,1,44.05,54.27Zm1-2.51a1.6,1.6,0,0,0,.26,1,.81.81,0,0,0,.65.31.91.91,0,0,0,.7-.32,1.43,1.43,0,0,0,.29-1,1.54,1.54,0,0,0-.28-1,.87.87,0,0,0-.69-.32.85.85,0,0,0-.67.32A1.51,1.51,0,0,0,45.06,51.76Z"/>
      <path class="cls-2" d="M52,54v-.63a1.69,1.69,0,0,1-.62.53,1.61,1.61,0,0,1-.8.2,1.52,1.52,0,0,1-.77-.19,1.12,1.12,0,0,1-.5-.53,2.4,2.4,0,0,1-.15-.94V49.71h1.13v2a5.64,5.64,0,0,0,.06,1.1.63.63,0,0,0,.23.32.7.7,0,0,0,.42.12.87.87,0,0,0,.52-.16.78.78,0,0,0,.31-.39,4.35,4.35,0,0,0,.09-1.16v-1.8h1.13V54Z"/>
      <path class="cls-2" d="M56.18,49.71v.9h-.77v1.73a3.53,3.53,0,0,0,0,.6.25.25,0,0,0,.1.15.29.29,0,0,0,.19,0,1.24,1.24,0,0,0,.45-.11l.1.88a2.28,2.28,0,0,1-.89.17,1.35,1.35,0,0,1-.55-.1.74.74,0,0,1-.36-.27,1,1,0,0,1-.16-.44,4.48,4.48,0,0,1,0-.79V50.61h-.52v-.9h.52v-.85l1.14-.66v1.51Z"/>
      <path class="cls-2" d="M59.27,54V48.09h1.16L62.84,52V48.09H64V54H62.76l-2.38-3.84V54Z"/>
      <path class="cls-2" d="M64.94,51.79a2.24,2.24,0,0,1,.28-1.09,1.91,1.91,0,0,1,.78-.81,2.4,2.4,0,0,1,1.14-.27,2.16,2.16,0,0,1,1.59.62,2.21,2.21,0,0,1,.62,1.6,2.18,2.18,0,0,1-.63,1.6,2.08,2.08,0,0,1-1.57.64A2.56,2.56,0,0,1,66,53.82a1.8,1.8,0,0,1-.81-.78A2.54,2.54,0,0,1,64.94,51.79Zm1.16.06a1.41,1.41,0,0,0,.3,1,1,1,0,0,0,1.49,0,1.73,1.73,0,0,0,0-2,1,1,0,0,0-1.49,0A1.44,1.44,0,0,0,66.1,51.85Z"/>
      <path class="cls-2" d="M71.32,54H70.19V49.71h1v.61a1.84,1.84,0,0,1,.48-.57.9.9,0,0,1,.49-.13,1.41,1.41,0,0,1,.74.21l-.35,1a1,1,0,0,0-.53-.18.62.62,0,0,0-.4.13.87.87,0,0,0-.26.47,7.08,7.08,0,0,0-.09,1.43Z"/>
      <path class="cls-2" d="M75.4,49.71v.9h-.77v1.73a5.32,5.32,0,0,0,0,.6.25.25,0,0,0,.1.15.3.3,0,0,0,.19,0A1.29,1.29,0,0,0,75.4,53l.09.88a2.28,2.28,0,0,1-.89.17,1.38,1.38,0,0,1-.55-.1.8.8,0,0,1-.36-.27,1,1,0,0,1-.16-.44,5.81,5.81,0,0,1,0-.79V50.61H73v-.9h.52v-.85l1.14-.66v1.51Z"/>
      <path class="cls-2" d="M77.31,48.09v2.17a1.66,1.66,0,0,1,1.31-.64,1.59,1.59,0,0,1,.7.14,1.23,1.23,0,0,1,.48.37,1.48,1.48,0,0,1,.21.5,4.29,4.29,0,0,1,.06.85V54H78.94V51.73a3.7,3.7,0,0,0-.06-.86.58.58,0,0,0-.23-.28.76.76,0,0,0-.41-.11.94.94,0,0,0-.5.14.8.8,0,0,0-.33.41,2.72,2.72,0,0,0-.1.81V54H76.18V48.09Z"/>
    </g>
  </g>
</svg>
